<svg width="120" height="42" baseProfile="basic" version="1.1" viewBox="0 0 120 42" xmlns="http://www.w3.org/2000/svg"><path d="m3.4102 0.45312 113.35 0.19922c1.5859 0 3-0.23438 3 3.1641l-0.14062 37.328h-119.07v-37.469c0-1.6758 0.16406-3.2227 2.8633-3.2227z" fill="#aab2ab"/><path d="m117.75 0h-115.51c-1.2383 0-2.2461 1.0078-2.2461 2.2461v39.246c0 0.28125 0.22656 0.50781 0.50781 0.50781h118.98c0.28125 0 0.50781-0.22656 0.50781-0.50781v-39.246c0-1.2383-1.0078-2.2461-2.2461-2.2461zm-115.51 1.0156h115.51c0.67969 0 1.2305 0.55078 1.2305 1.2305v27.223h-82.555c-3.0273 5.4688-8.8594 9.1836-15.547 9.1836-6.6953 0-12.523-3.7109-15.547-9.1836h-4.3203v-27.223c0-0.67969 0.55078-1.2305 1.2305-1.2305z"/><path d="m34.523 19.551c0.003906 7.5312-6.0977 13.637-13.629 13.641-7.5273 0.007813-13.637-6.0938-13.641-13.625v-0.015625c-0.007812-7.5273 6.0938-13.637 13.625-13.641 7.5312-0.003906 13.641 6.0938 13.645 13.625v0.015625z" fill="#fff"/><path d="m31.973 8.4453c3.0234 3.0234 4.5352 6.7266 4.5352 11.105 0 4.3789-1.4883 8.043-4.457 10.988-3.1562 3.1016-6.8828 4.6523-11.184 4.6523-4.25 0-7.9102-1.5391-10.984-4.6133-3.0781-3.0742-4.6133-6.75-4.6133-11.027 0-4.2734 1.5352-7.9766 4.6133-11.105 2.9961-3.0234 6.6562-4.5352 10.984-4.5352 4.3789 0 8.082 1.5117 11.105 4.5352zm-20.055 2.0352c-2.5586 2.582-3.8359 5.6055-3.8359 9.0742s1.2656 6.4688 3.793 8.9961c2.5312 2.5312 5.543 3.793 9.0391 3.793 3.4961 0 6.5312-1.2773 9.1133-3.832 2.4531-2.3711 3.6797-5.3594 3.6797-8.957 0-3.5703-1.2461-6.6016-3.7383-9.0938-2.4922-2.4883-5.5078-3.7344-9.0547-3.7344s-6.5469 1.25-8.9961 3.7539zm6.7266 7.5508c-0.39062-0.85156-0.97656-1.2773-1.7578-1.2773-1.375 0-2.0664 0.92578-2.0664 2.7812 0 1.8555 0.69141 2.7852 2.0664 2.7852 0.91016 0 1.5625-0.45312 1.9531-1.3594l1.9102 1.0195c-0.91016 1.6172-2.2773 2.4258-4.0977 2.4258-1.4062 0-2.5312-0.42969-3.3789-1.293-0.84375-0.85938-1.2695-2.0469-1.2695-3.5625 0-1.4883 0.4375-2.668 1.3086-3.543s1.9609-1.3125 3.2617-1.3125c1.9258 0 3.3047 0.75781 4.1367 2.2773zm8.9883 0c-0.39062-0.85156-0.96484-1.2773-1.7188-1.2773-1.4062 0-2.1094 0.92578-2.1094 2.7812 0 1.8555 0.70312 2.7852 2.1094 2.7852 0.91406 0 1.5508-0.45312 1.9141-1.3594l1.9531 1.0195c-0.91016 1.6172-2.2734 2.4258-4.0898 2.4258-1.4062 0-2.5273-0.42969-3.375-1.293-0.83984-0.85938-1.2656-2.0469-1.2656-3.5625 0-1.4883 0.42969-2.668 1.2891-3.543 0.85547-0.875 1.9453-1.3125 3.2734-1.3125 1.9219 0 3.2969 0.75781 4.1289 2.2773z"/><path d="m62.504 15.223c0 5.9297-4.8086 10.738-10.742 10.738-5.9297 0-10.738-4.8086-10.738-10.738 0-5.9297 4.8086-10.738 10.738-10.738 5.9336 0 10.742 4.8086 10.742 10.738z" fill="#fff"/><path d="m54.871 12.117c0-0.41406-0.33594-0.75-0.75-0.75h-4.7422c-0.41406 0-0.75 0.33594-0.75 0.75v4.7422h1.3242v5.6172h3.5938v-5.6172h1.3242z"/><path d="m53.371 9.1211c0 0.89453-0.72266 1.6211-1.6211 1.6211-0.89453 0-1.6211-0.72656-1.6211-1.6211s0.72656-1.6211 1.6211-1.6211c0.89844 0 1.6211 0.72656 1.6211 1.6211z"/><path d="m51.734 3.3906c-3.2109 0-5.9297 1.1211-8.1562 3.3633-2.2812 2.3203-3.4219 5.0625-3.4219 8.2344 0 3.168 1.1406 5.8945 3.4219 8.1719 2.2852 2.2812 5.0039 3.4219 8.1562 3.4219 3.1953 0 5.9609-1.1484 8.3047-3.4492 2.207-2.1836 3.3086-4.8984 3.3086-8.1445 0-3.25-1.1211-5.9922-3.3672-8.2344-2.2461-2.2422-4.9922-3.3633-8.2461-3.3633zm0.03125 2.0898c2.6328 0 4.8672 0.92578 6.7031 2.7812 1.8594 1.8359 2.7891 4.0781 2.7891 6.7266 0 2.6641-0.91016 4.8789-2.7305 6.6367-1.9141 1.8945-4.168 2.8398-6.7617 2.8398s-4.8281-0.9375-6.707-2.8125c-1.875-1.8711-2.8125-4.0938-2.8125-6.6641 0-2.5703 0.94531-4.8125 2.8438-6.7266 1.8203-1.8555 4.043-2.7812 6.6758-2.7812z" fill-rule="evenodd"/><path d="m48.402 32.746c0.3125 0 0.60156 0.03125 0.86328 0.085937 0.25781 0.054688 0.48438 0.14453 0.66797 0.27344 0.1875 0.125 0.32812 0.29297 0.43359 0.50391 0.10156 0.21094 0.15234 0.46875 0.15234 0.77734 0 0.33594-0.074218 0.61328-0.22656 0.83594-0.15234 0.22266-0.37891 0.40234-0.67578 0.54688 0.41016 0.11719 0.71484 0.32422 0.91797 0.61719s0.30469 0.64844 0.30469 1.0625c0 0.33203-0.066406 0.62109-0.19531 0.86719-0.13281 0.24219-0.30859 0.44531-0.52734 0.59766-0.21875 0.15625-0.47266 0.26953-0.75391 0.34375-0.28125 0.074218-0.57031 0.11328-0.86719 0.11328h-3.2188v-6.625zm-0.1875 2.6797c0.26172 0 0.47266-0.0625 0.64062-0.18359 0.16797-0.125 0.25-0.32422 0.25-0.60156 0-0.15625-0.027344-0.28125-0.082031-0.37891-0.054688-0.10156-0.12891-0.17578-0.22266-0.23438-0.09375-0.054688-0.19922-0.09375-0.32031-0.11328-0.12109-0.023438-0.24609-0.035157-0.37891-0.035157h-1.3633v1.5469zm0.085937 2.8086c0.14062 0 0.27734-0.011719 0.40625-0.039062 0.13281-0.027344 0.24609-0.074219 0.34766-0.14062 0.097656-0.0625 0.17578-0.15234 0.23438-0.26562 0.058593-0.10938 0.089843-0.25 0.089843-0.42578 0-0.33984-0.097656-0.58203-0.28906-0.72656s-0.44531-0.21875-0.76172-0.21875h-1.5898v1.8164z" fill="#fff"/><path d="m51.094 32.746h1.6328l1.5508 2.6172 1.543-2.6172h1.625l-2.4609 4.082v2.543h-1.4609v-2.582z" fill="#fff"/><path d="m98.441 37.73c0.078125 0.15625 0.18359 0.28125 0.32031 0.37891 0.13281 0.09375 0.28516 0.16406 0.46484 0.21094 0.17969 0.046875 0.36328 0.070312 0.55469 0.070312 0.12891 0 0.26953-0.011719 0.41797-0.03125 0.14844-0.023437 0.28516-0.0625 0.41797-0.125 0.12891-0.0625 0.23438-0.14844 0.32422-0.25781 0.082032-0.10547 0.12891-0.24609 0.12891-0.41016 0-0.17969-0.058594-0.32422-0.17188-0.4375-0.11328-0.10938-0.26562-0.20312-0.44922-0.27734-0.1875-0.074219-0.39844-0.14062-0.62891-0.19531-0.23828-0.054687-0.47266-0.11719-0.71484-0.18359-0.24609-0.0625-0.48828-0.14062-0.72266-0.23047-0.23438-0.085938-0.44531-0.20312-0.62891-0.34766-0.1875-0.14062-0.33594-0.32031-0.44922-0.53125-0.11328-0.21484-0.17188-0.47266-0.17188-0.77344 0-0.34375 0.074218-0.63672 0.21875-0.88672 0.14453-0.25 0.33203-0.46094 0.56641-0.62891 0.23438-0.16406 0.50391-0.28906 0.80078-0.37109 0.29297-0.078125 0.58984-0.11719 0.88672-0.11719 0.34766 0 0.67969 0.039062 0.99609 0.11328 0.32031 0.078125 0.60156 0.20312 0.84766 0.37891 0.25 0.17188 0.44531 0.39453 0.58984 0.66016 0.14453 0.27344 0.21875 0.59766 0.21875 0.98047h-1.4141c-0.011719-0.19922-0.054687-0.36328-0.125-0.49219-0.070312-0.12891-0.16406-0.23047-0.28125-0.30469-0.11719-0.074219-0.25-0.12891-0.40234-0.15625-0.14844-0.03125-0.31641-0.046875-0.49219-0.046875-0.11719 0-0.23438 0.011719-0.35156 0.035156-0.11719 0.027344-0.22266 0.070313-0.31641 0.12891-0.097656 0.0625-0.17578 0.14062-0.23828 0.23438-0.058594 0.09375-0.089844 0.21094-0.089844 0.35156 0 0.12891 0.023438 0.23438 0.070313 0.31641 0.050781 0.078125 0.14844 0.15625 0.29297 0.22266 0.14844 0.066406 0.34766 0.13672 0.60156 0.20312 0.25781 0.066406 0.59375 0.15625 1.0078 0.26172 0.12109 0.023438 0.29297 0.070313 0.51172 0.13281 0.21875 0.066406 0.4375 0.16797 0.65234 0.3125 0.21875 0.14062 0.40234 0.33203 0.5625 0.57031 0.15625 0.23828 0.23438 0.54297 0.23438 0.91406 0 0.30078-0.058594 0.58203-0.17578 0.84375-0.11719 0.25781-0.29297 0.48438-0.52344 0.67188s-0.51953 0.33594-0.86328 0.44141-0.73828 0.15625-1.1914 0.15625c-0.36328 0-0.71875-0.042969-1.0625-0.13281-0.34375-0.089844-0.64453-0.23047-0.90625-0.42578-0.26562-0.19141-0.47266-0.4375-0.62891-0.73438-0.15234-0.29688-0.22656-0.64844-0.22266-1.0547h1.4141c0 0.22266 0.039062 0.41016 0.12109 0.5625z" fill="#fff"/><path d="m106.64 32.746 2.4766 6.625h-1.5117l-0.5-1.4766h-2.4766l-0.51953 1.4766h-1.4648l2.5039-6.625zm0.085938 4.0625-0.83594-2.4297h-0.019531l-0.85938 2.4297z" fill="#fff"/><path d="m72.52 32.746 2.7656 4.4453h0.015625v-4.4453h1.3672v6.625h-1.457l-2.7578-4.4336h-0.019531v4.4336h-1.3633v-6.625z" fill="#fff"/><path d="m82.195 34.512c-0.085938-0.14062-0.19531-0.26172-0.32422-0.36719-0.12891-0.10547-0.27734-0.1875-0.44141-0.24609-0.16406-0.058594-0.33594-0.085938-0.51562-0.085938-0.32812 0-0.60547 0.0625-0.83594 0.1875-0.22656 0.12891-0.41406 0.29688-0.55469 0.51172-0.14062 0.21094-0.24609 0.45312-0.3125 0.72656-0.0625 0.27344-0.097657 0.55469-0.097657 0.84375 0 0.27734 0.035157 0.55078 0.097657 0.8125 0.066406 0.26172 0.17188 0.5 0.3125 0.70703 0.14062 0.21094 0.32812 0.37891 0.55469 0.50781 0.23047 0.125 0.50781 0.1875 0.83594 0.1875 0.44531 0 0.79297-0.13281 1.043-0.40625 0.25391-0.27344 0.40625-0.63281 0.46094-1.0781h1.4102c-0.035156 0.41406-0.13281 0.78906-0.28906 1.125-0.15234 0.33203-0.35938 0.61719-0.60938 0.85156-0.25391 0.23828-0.55078 0.41797-0.89062 0.54297-0.33984 0.12109-0.71484 0.18359-1.125 0.18359-0.50781 0-0.96094-0.085937-1.3672-0.26562-0.40625-0.17188-0.74609-0.41797-1.0273-0.72656-0.27734-0.30859-0.49219-0.67188-0.64062-1.0898-0.14844-0.41797-0.22266-0.86719-0.22266-1.3516 0-0.49609 0.074219-0.95312 0.22266-1.3789 0.14844-0.42188 0.36328-0.79297 0.64062-1.1094 0.28125-0.3125 0.62109-0.5625 1.0273-0.74219 0.40625-0.17969 0.85938-0.26562 1.3672-0.26562 0.36719 0 0.71094 0.050781 1.0352 0.15625 0.32422 0.10547 0.61719 0.25781 0.87109 0.46094 0.25781 0.19922 0.46875 0.44922 0.63672 0.74609 0.16797 0.29688 0.27344 0.63672 0.31641 1.0195h-1.4102c-0.027343-0.16406-0.082031-0.32031-0.16797-0.45703z" fill="#fff"/><path d="m114.58 14.98c0.007813 5.8438-4.7305 10.586-10.574 10.594-5.8477 0-10.59-4.7305-10.594-10.578v-0.015625c-0.003906-5.8438 4.7305-10.586 10.578-10.59 5.8438-0.007812 10.586 4.7305 10.59 10.574v0.015625z" fill="#fff"/><path d="m103.92 3.3867c-3.2109 0-5.9297 1.1211-8.1562 3.3594-2.2812 2.3203-3.4258 5.0664-3.4258 8.2344s1.1445 5.8945 3.4258 8.1758c2.2852 2.2812 5.0039 3.418 8.1562 3.418 3.1953 0 5.9609-1.1484 8.3008-3.4492 2.207-2.1836 3.3125-4.8984 3.3125-8.1445s-1.125-5.9922-3.3672-8.2344c-2.2461-2.2383-4.9922-3.3594-8.2461-3.3594zm0.03125 2.0859c2.6289 0 4.8633 0.92578 6.7031 2.7852 1.8594 1.832 2.7852 4.0742 2.7852 6.7227 0 2.668-0.90625 4.8789-2.7266 6.6406-1.9141 1.8906-4.1719 2.8398-6.7617 2.8398-2.5938 0-4.8281-0.9375-6.707-2.8125-1.875-1.875-2.8164-4.0977-2.8164-6.668 0-2.5703 0.94922-4.8125 2.8477-6.7227 1.8164-1.8594 4.043-2.7852 6.6758-2.7852z"/><path d="m98.777 13.344c0.46484-2.918 2.5156-4.4766 5.0938-4.4766 3.6992 0 5.957 2.6875 5.957 6.2695 0 3.4922-2.4023 6.207-6.0156 6.207-2.4883 0-4.7148-1.5273-5.1211-4.5352h2.9219c0.085938 1.5625 1.0977 2.1094 2.5469 2.1094 1.6445 0 2.7188-1.5312 2.7188-3.8711 0-2.4531-0.92578-3.7539-2.6641-3.7539-1.2695 0-2.3711 0.46484-2.6016 2.0508l0.84766-0.003906-2.2969 2.2969-2.3008-2.2969z"/><path d="m88.629 14.98c0.003907 5.957-4.8203 10.789-10.777 10.793-5.957 0.003906-10.793-4.8203-10.797-10.777v-0.015625c-0.003907-5.957 4.8242-10.789 10.781-10.793 5.957-0.003906 10.789 4.8203 10.793 10.777v0.015625z" fill="#fff"/><path d="m77.828 3.3867c3.25 0 5.9961 1.1211 8.2422 3.3594 2.2461 2.2422 3.3672 4.9883 3.3672 8.2344s-1.1016 5.9609-3.3086 8.1445c-2.3398 2.3008-5.1094 3.4492-8.3008 3.4492-3.1562 0-5.875-1.1367-8.1562-3.418-2.2852-2.2812-3.4258-5.0078-3.4258-8.1758s1.1406-5.9141 3.4258-8.2344c2.2266-2.2383 4.9414-3.3594 8.1562-3.3594zm-8.9727 8.4805c-0.34766 0.97656-0.51953 2.0156-0.51953 3.1133 0 2.5703 0.9375 4.793 2.8164 6.668 1.875 1.875 4.1094 2.8125 6.7031 2.8125s4.8477-0.94922 6.7656-2.8438c0.64062-0.61719 1.168-1.293 1.582-2.0273l-4.3711-1.9453c-0.29688 1.4688-1.6055 2.4648-3.1914 2.582v1.7852h-1.332v-1.7852c-1.3008-0.015625-2.5586-0.55078-3.5195-1.3906l1.5977-1.6094c0.76953 0.72266 1.5391 1.0469 2.5898 1.0469 0.67969 0 1.4336-0.26562 1.4336-1.1523 0-0.3125-0.12109-0.53125-0.3125-0.69531l-1.1055-0.49219-1.3789-0.61328c-0.67969-0.30469-1.2578-0.55859-1.8359-0.81641zm9-6.3945c-2.6328 0-4.8555 0.92578-6.6758 2.7852-0.49609 0.49609-0.92578 1.0195-1.2891 1.5625l4.4297 1.9766c0.40234-1.2305 1.5703-1.9766 2.9883-2.0586v-1.7891h1.332v1.7891c0.91797 0.042969 1.9219 0.29297 2.9141 1.0625l-1.5234 1.5664c-0.5625-0.39844-1.2734-0.67969-1.9844-0.67969-0.57422 0-1.3867 0.17578-1.3867 0.89844 0 0.11328 0.035157 0.21094 0.10156 0.29688l1.4844 0.66016 1.0039 0.44531c0.64062 0.28516 1.2539 0.55859 1.8633 0.82812l5.9414 2.6484c0.19531-0.78125 0.29297-1.6094 0.29297-2.4844 0-2.6484-0.92969-4.8906-2.7852-6.7227-1.8398-1.8594-4.0742-2.7852-6.707-2.7852z"/></svg>
