<svg version="1.2" baseProfile="tiny" xmlns="http://www.w3.org/2000/svg" viewBox="0 0 32.579 31.747"><path fill-rule="evenodd" fill="#191717" d="M16.288 0C7.294 0 0 7.293 0 16.29c0 7.197 4.667 13.303 11.14 15.457.816.15 1.113-.353 1.113-.785l-.022-2.77c-4.53.984-5.486-2.184-5.486-2.184-.74-1.882-1.81-2.383-1.81-2.383-1.478-1.01.113-.99.113-.99 1.635.115 2.495 1.68 2.495 1.68 1.453 2.488 3.813 1.77 4.74 1.353.15-1.053.57-1.77 1.035-2.178-3.617-.41-7.42-1.81-7.42-8.05 0-1.78.635-3.233 1.677-4.372-.168-.412-.727-2.068.16-4.31 0 0 1.368-.44 4.48 1.67 1.298-.362 2.692-.543 4.077-.55 1.384.007 2.778.188 4.08.55 3.11-2.11 4.474-1.67 4.474-1.67.89 2.242.33 3.898.162 4.31 1.044 1.14 1.674 2.593 1.674 4.37 0 6.26-3.81 7.636-7.438 8.04.585.502 1.106 1.496 1.106 3.016 0 2.178-.02 3.935-.02 4.47 0 .435.293.94 1.12.782 6.467-2.158 11.13-8.26 11.13-15.454 0-9-7.293-16.292-16.29-16.292z"/></svg>