<svg version="1.2" baseProfile="tiny" xmlns="http://www.w3.org/2000/svg" viewBox="0 0 32.579 31.747"><path fill-rule="evenodd" fill="#191717" d="M16.288 0c-8.994 0-16.288 7.293-16.288 16.291 0 7.196 4.667 13.302 11.141 15.456.815.149 1.112-.353 1.112-.785l-.022-2.77c-4.531.984-5.487-2.184-5.487-2.184-.741-1.882-1.809-2.383-1.809-2.383-1.479-1.011.112-.99.112-.99 1.635.115 2.495 1.679 2.495 1.679 1.453 2.489 3.813 1.771 4.741 1.354.148-1.053.569-1.771 1.034-2.178-3.617-.411-7.42-1.809-7.42-8.051 0-1.778.635-3.232 1.677-4.371-.168-.412-.727-2.068.16-4.311 0 0 1.368-.438 4.479 1.67 1.299-.361 2.693-.542 4.078-.548 1.383.006 2.777.187 4.078.548 3.11-2.108 4.475-1.67 4.475-1.67.889 2.243.33 3.899.162 4.311 1.044 1.139 1.674 2.593 1.674 4.371 0 6.258-3.809 7.635-7.438 8.038.585.503 1.106 1.497 1.106 3.017 0 2.178-.02 3.935-.02 4.469 0 .436.293.942 1.12.783 6.467-2.158 11.13-8.26 11.13-15.454.001-8.999-7.293-16.292-16.29-16.292z"/></svg>