<svg xmlns="http://www.w3.org/2000/svg" width="437.419" height="223.377"><g fill-rule="evenodd"><path d="M166.84 185.915c-.235-.5-5.12-9.986-6.05-11.76-2.295-4.39-6.065-11.59-9.323-18.988-2.658-6.036-6.397-16.28-7.477-21.046-.015-.063 6.744-7.01 6.87-7.174 1.62.694 5.83 22.143 7.226 25.31 3.134 7.116 6.856 14.225 9.125 18.56.92 1.756.28 2.84.67 3.683l-1.04 11.415zm-19.754-52.524c-2.24.504-.425 1.006 0 0zm-74 30.994c12.767-5.607 28.333-26.34 34.027-33.924 1.013-1.353 1.088-5.424 1.422-5.824l6.87 7.066c-.4.477-1.68 1.96-2.524 3.087-6 7.99-23.51 26.533-38.01 32.9l-1.784-3.306zM90.973 24.7c1.47 3.33.6 5.435-1.693 7-1.554 1.057-3.427 1.27-5.557 1.505-2.814.315-6.534.735-6.08 5.625 2.195 1.232 3.122 2.445.387 3.194l.21 1.702-4.61-.587-3.02-.386c-1.307.028-2.772.036-4.42.017h-.015c-3.9-.046-7.355-.08-11.537.002-3.222.064-6.942.207-11.762.473.122 7.55 2.672 14.02 7.647 19.412l3.596 6.25-7.16-.847c-2.382-.28-5.3-.624-8.71-.84-10.437-.7-23.432 1.23-33.234 7.035-1.74 1.03 21.805 13.024 27.64 14.87-1.896 4.542-8.042 12.255-6.19 13.767.857.698 3.827.855 7.913 2.547 8.006 3.974 13.86 6.015 21.42 9.8l3.075 2.595c-5 4.56-8.582 11.045-13.718 15.93-2.37 2.252-4.592 4.365-5.924 6.17-.16.216-.32.42-.48.61 1.418.624 2.83 1.332 4.242 2.044 3.764 1.892 7.55 3.797 10.32 3.294l1.873-.34 1.337 1.357 4.266 4.33 2.093 2.125L61.2 155.8c-6.035 8.79-9.37 16.69-11.164 24.08-1.476 6.09-1.915 11.94-1.963 17.694 2.83-.363 5.635-1.37 8.32-2.332.92-.33 1.833-.657 3-1.04 5.095-1.675 9.788-3.997 14.247-7.125 4.49-3.15 8.785-7.153 13.05-12.167l3.778-3.466 4.36 3.45c1.35 7.687 4.01 14.938 11.338 20.636 3.122-2.316 5.504-5.435 7.55-9.185 2.64-4.844 4.765-10.835 7.112-17.526l.015-.044-.015.043M85.205 25.73c.404-.275.083-.11-.4.076l.4-.076zm-1.8.242l-.012-.016L81.8 23.62l1.875-2.105c3.88-4.345 14.548-9.17 26.57-9.876 8.72-.514 18.08 1.702 26.543 7.007l32.305 19.45v.014c1.33.837 2.395-3.944 7.627-8.3 8.9-7.413 21.308-17.748 32.676-23.7 2.914-1.528 5.664-2.71 8.03-3.604C222.01.772 225.314.12 225.54.092h.013c3.37-.395 9.83 6.76 13.07 12.685.902 1.653 1.617 3.23 2.005 4.527.707 2.363.503 4.416-.952 5.847-1.215 1.2-2.817 1.605-4.843.995-14.58-4.375-24.938 6.14-41.474 22.932-1.866 1.894-3.81 3.868-5.856 5.92l-.004-.003-.01.018-.02.017v.012l.035-.042v-.003l-.016.015-.02.027v.002-.002c-2.147 2.967 12.323 15.87 13.224 16.612 11.412 9.408 17.77 19.2 20.715 29.643 2.924 10.372 2.434 21.224.183 32.897l-.392 2.36-32.29.255c5.723 7.032 12.67 14.797 13.99 23.792 3.294 8.107.073 16.207-.51 24.667l-.17 3.317c-6.352-.553-9.15-1.953-15.76-4.937-.534-.572-1.077-1.157-1.716-1.692-.563 13.25-.854 26.46-5.823 40.345l-2.21 3.076-2.964-2.34c-4.728-3.735-8.738-7.75-12.287-11.944-2.614-3.087-4.952-6.25-7.132-9.458l-9.21 7.083-2.897 2.23-2.192-2.922c-4.34-5.785-7.618-12.7-10.212-20.335-1.23-3.628-2.31-7.423-3.28-11.34-2.033 5.72-4.008 10.9-6.486 15.445-3.094 5.676-6.916 10.245-12.43 13.385l-2.227 1.267-1.93-1.69c-7.605-4.206-11.488-12.197-13.613-20.382-3.414 3.545-8.405 8.055-12.052 10.612-5.063 3.552-10.39 6.188-16.17 8.088-.738.242-1.764.61-2.803.982-4.48 1.605-9.236 3.308-14.656 2.845l-3.272-.278-.053-3.285c-.116-7.398.186-14.955 2.176-23.158 1.815-7.482 5.024-15.38 10.566-23.977l-1.006-1.02c-4.41.092-8.635-2.034-12.837-4.15-2.64-1.325-5.204-2.493-8.044-3.3l-3.28-1.73c.676-4.434 11.18-13.565 11.76-15.475 2.54-2.42 5.26-5.005 7.303-7.61.198-.256.548-.94.906-1.64l.335-.65-.036-.26c-6.564-3.56-30.575-10.2-29.974-14.085.294-1.89 5.562-10.224 7.384-12.44.065-.913-2.39-1.82-5.775-3.553C14.72 85.224 4.365 82.186 0 73.585 9.97 64.407 25.056 59.11 38.703 59.98c.667.04 1.338.092 2.002.15l-2.39-4.15-.395-1.09-2.964-14.303-.846-4.08 4.17-.26c6.833-.09 11.624-1.16 30.698-.983l1.18.152c.07.01-2.063 1.124-1.988 1.134.776-8.106 9.6-9.95 14.76-10.528l.476-.05zm37.438 142.804l3.047-9.092 3.748-6.312 3.225 6.792c1.552 8.195 3.375 16.07 5.798 23.206 1.924 5.66 4.224 10.84 7.063 15.314l9.272-7.134 3.118-2.398 2.13 3.303c2.64 4.095 5.472 8.12 8.73 11.97 2.473 2.92 5.223 5.77 8.36 8.51l.895-1.24 1.297-32.554.005-.126.05-.31.775-4.672.633-3.815c5.248 1.447 5.656 3.48 12.04 7.41.856.918 5.756 1.965 6.998 2.53 1.393-6.875.867-13.618-2.827-20.01-2.556-10.268-10.68-20.418-13.786-31.305l33.59-.822c1.607-9.575 1.794-18.45-.553-26.773-2.555-9.06-8.176-17.645-18.34-26.023-1.222-1.008-20.335-19.343-14.176-26.82v-.014c.145-.175.285-.333.42-.466l.005.007c2.02-2.025 3.976-4.01 5.85-5.916 16.846-17.105 27.938-28.358 44.036-25.86-2.18-3.98-5.277-8.882-5.86-8.877-.17.022-2.545.527-6.416 1.99-2.074.784-4.536 1.848-7.236 3.262-10.605 5.552-22.702 15.627-31.377 22.85-7.568 6.306-12.972 10.8-16.105 8.846l-.006.01-32.084-20.112c-7.017-4.4-15.09-5.68-22.49-5.245-8.44.495-15.81 3.097-19.7 5.817" fill="#2c2c2b"/><path d="M71.636 2.964c17.894-.488 29.69-9.84 40.56 8.284l6.723 11.203c7.632 12.725 20.506 25.41 41.275 36.856 6.732.194 18.84 8.888 18.8 2.85-.046-7.677 18.777-11.518 35.554 4.122 14.21 13.246 13.988 41.9 18.87 61.402l-27.694.325-128.676-16.62-17.85-64.5-.17-13.553L71.636 2.965z" fill="#fff" stroke="#fff" stroke-width=".27"/><path d="M227.51 190.21v-2.37l.374-.294c2.615-.097 4.37-.39 5.295-.91.908-.502 2.224-1.95 3.945-4.32 2.534-3.555 7.827-11.174 15.883-22.85l12.846-18.35c3.914-5.555 6.17-8.852 6.805-9.907.42-.7.615-1.316.615-1.852 0-1.024-.616-1.754-1.867-2.21-1.267-.47-4.84-.843-10.734-1.12l-.375-.34v-2.372l.374-.34c.567 0 2.386.064 5.47.194 3.07.13 5.848.195 8.332.195 2.5 0 5.214-.065 8.138-.195l5.375-.195.324.34c-.098 1.365-.163 3.086-.195 5.183l-.13 7.908V167.8c0 2.596.03 5.748.08 9.418.065 3.686.163 6.008.293 6.967.13.974.373 1.656.763 2.046.373.407 1.137.7 2.257.894 1.12.18 3.02.325 5.685.422l.39.293v2.37l-.39.374c-.212 0-2.29-.05-6.238-.18-3.766-.13-6.27-.194-7.502-.194-.682 0-5.18.13-13.528.374l-.374-.374v-2.37l.374-.294c2.73-.097 4.676-.243 5.814-.422 1.137-.194 1.884-.504 2.242-.943.34-.42.567-1.135.682-2.125.113-1.008.195-3.394.26-7.194.063-3.784.097-6.805.097-9.06v-38.686h-1.284l-16.89 26.31-13.04 20.316c-3.33 5.213-5.066 8.055-5.23 8.54-.16.505-.242.88-.242 1.17 0 1.235.975 1.87 2.907 1.9l3.525.196.373.293v2.37l-.373.374c-3.216-.244-6.335-.374-9.37-.374-3.622 0-7.406.13-11.386.374l-.373-.374zm114.43-7l-1.53 3.427c-3.295 2.127-6.234 3.508-8.816 4.14-2.6.634-4.904.958-6.935.958-3.8 0-7.406-.746-10.816-2.24-3.41-1.494-6.19-4.01-8.33-7.57-2.145-3.555-3.218-7.825-3.218-12.844 0-3.328.422-6.333 1.25-9.01.813-2.682 1.69-4.68 2.583-5.98.91-1.298 2.435-2.743 4.595-4.32 2.16-1.59 4.434-2.856 6.853-3.815 2.405-.94 5.002-1.43 7.796-1.43 3.816 0 7.162.91 10.067 2.697 2.91 1.787 4.94 4.077 6.11 6.87 1.184 2.793 1.77 5.764 1.77 8.9 0 .99-.05 1.932-.147 2.857l-.52.52c-2.16.486-5.067.795-8.706.956-3.653.163-6.056.23-7.242.23H311.44c.065 6.575 1.705 11.415 4.952 14.516 3.232 3.103 7.194 4.662 11.888 4.662 2.226 0 4.353-.373 6.4-1.138 2.045-.762 4.205-1.817 6.495-3.18l.764.794zm-30.5-19.455c.568.098 2.76.21 6.593.34 3.816.114 6.642.18 8.493.18 4.403 0 7.08-.082 8.04-.23.033-.76.05-1.346.05-1.77 0-4.904-1.008-8.574-3.006-10.96-1.998-2.39-4.726-3.59-8.185-3.59-3.77 0-6.707 1.348-8.82 4.044s-3.166 6.69-3.166 11.985zm76.41 21.37l-1.9 3.185c-4.094 2.24-8.657 3.377-13.707 3.377-6.984 0-12.377-2.078-16.177-6.236-3.8-4.156-5.716-9.516-5.716-16.078 0-2.987.325-5.633.975-7.972.65-2.323 1.478-4.255 2.485-5.783.99-1.526 2.094-2.727 3.296-3.62 1.22-.878 3.248-2.112 6.123-3.703 2.874-1.59 5.034-2.63 6.495-3.118 1.46-.488 3.475-.73 6.04-.73 4.923 0 8.95.924 12.084 2.793-.6 3.586-1.058 7.583-1.383 12l-.42.374h-1.95l-.438-.423c-.13-2.663-.294-4.465-.52-5.375-.23-.925-1.48-1.9-3.784-2.955-2.307-1.04-4.744-1.575-7.357-1.575-2.6 0-4.906.552-6.936 1.655-2.03 1.09-3.573 2.875-4.597 5.376-1.038 2.485-1.542 5.456-1.542 8.916 0 2.923.405 5.765 1.234 8.542.827 2.778 1.915 5.067 3.264 6.902 1.347 1.82 3.117 3.28 5.342 4.4 2.225 1.105 4.694 1.658 7.423 1.658 1.72 0 3.392-.227 5.016-.665 1.64-.44 3.524-1.17 5.636-2.194l1.007 1.25zm12.032-27.17l-1.85-.485-.39-.47c.032-.505.048-1.154.048-1.95l-.05-3.947c3.428-2.224 6.335-3.833 8.723-4.807 2.37-.99 4.952-1.478 7.746-1.478 4.92 0 8.8 1.283 11.66 3.85 2.858 2.58 4.288 6.057 4.288 10.473l-.244 9.568v14.177c0 1.706.146 2.84.422 3.38.292.535.682.89 1.17 1.086.485.196 1.51.36 3.068.49l.374.42v1.9l-.374.39c-2.468-.226-4.4-.34-5.798-.34-1.33 0-3.393.114-6.187.34l-.715-.68.178-7.65-6.09 4.758c-2.112 1.672-3.54 2.793-4.272 3.33-1.752.73-3.652 1.087-5.715 1.087-3.767 0-6.74-1.007-8.915-3.02-2.177-2.014-3.265-4.742-3.265-8.202 0-3.588.943-6.512 2.81-8.785 1.868-2.258 4.71-4.045 8.494-5.327 3.783-1.282 9.45-2.45 16.953-3.49 0-1.966-.13-3.655-.39-5.052-.275-1.397-.925-2.712-1.964-3.963-1.025-1.25-2.324-2.207-3.9-2.84-1.557-.635-3.33-.944-5.294-.944-1.055 0-2.062.083-3.053.26-.974.18-1.9.456-2.76.83-.862.39-1.38.65-1.577.81-.178.164-.356.44-.518.863-.098.178-.44.942-1.04 2.273-.488 1.024-.877 1.982-1.185 2.908l-.39.242zm22.07 7.375c-7.323 1.17-12.47 2.615-15.427 4.35-2.973 1.722-4.45 4.516-4.45 8.35 0 2.47.65 4.37 1.965 5.666 1.332 1.3 3.12 1.95 5.41 1.95 4.22 0 8.394-2.452 12.502-7.324V165.33zM71.85 77.51c.015-1.29.034-2.566 0-3.85l.666-.62c6.277.622 13.138.76 16.598-5.52 10.38-18.847-21.618-28.397-26.066-5.28l-1.3.523c-1.36-1.364-1.045-8.717-1.283-10.947 10.034-7.343 39.968-11.9 39.968 6.804 0 8.95-7.524 13.994-15.51 15.656v.812c11.602 0 22.46 2.6 22.46 16.452 0 22.594-33.09 30.36-47.957 17.133.34-5.09.344-9.992.244-15.087l1.9-.715c2.594 2.187 3.273 10.454 6.675 14.065 21.983 23.33 47.86-38.67 4.27-28.76l-.665-.666zm91.823 11.984c0 32.286-48.055 34.474-48.055 1.867 0-30.357 48.055-31.38 48.055-1.866zm-9.177 2.81c0-25.45-29.735-28.623-29.735-3.135 0 26.73 29.736 30.86 29.736 3.133zm12.408 19.18c.974-.89 3.004-.593 4.352-1.366 4.988-2.735 27.624-31.587 27.624-36.085 0-4.168-8.525 1.325-8.525-4.613l.34-.325c3.142.253 20.006-.804 21.307.325-.335 8.534-2.895 31.544.405 39.253 1.114 2.51 5.045 1.353 6.644 2.81v1.997l-.374.374c-7.373-.406-14.613-.41-21.987 0l-.342-2.37c1.88-1.88 6.596-.03 6.998-4.19 1.07-10.89.39-22.264.39-33.164h-.715c-6.503 9.25-19.38 22.933-23.124 33.42-1.437 4.183 4.654 2.51 6.285 3.933v1.997l-.39.374c-6.235-.403-12.278-.383-18.513 0l-.373-2.37zm107.185-21.99c0 32.286-48.056 34.474-48.056 1.867 0-30.357 48.055-31.38 48.055-1.866zm-9.177 2.81c0-25.45-29.735-28.623-29.735-3.135 0 26.73 29.735 30.86 29.735 3.133zm14.21-22.884c2.545-2.116 35.942-.02 41.966-.325l.34.325c-.07 1.506.282 9.995-.57 10.898h-1.916c-1.442-1.527.156-6.525-2.354-7.57-2.96-1.265-9.113-.275-12.344-.275-.07 4.355-2.045 36.57 1.77 38.036 1.478.58 3.574-.02 4.71.973v1.997l-.39.374c-6.654-.513-13.42-.54-20.07 0l-.392-.374v-1.997c4.33-3.783 6.337 2.362 6.577-6.822.28-10.726.024-21.46-.145-32.187-3.158 0-9.533-1.015-12.39.308-2.37.985-.918 6.065-2.308 7.538l-2.192-.293c0-1.268-.096-4.79-.293-10.605zm47.91 44.06v-1.997c2.093-1.834 6.525-.065 7.03-4.19.767-7.922 2.326-26.723-.39-33.065-1.72-4.015-6.64.463-6.64-4.808 1.198-1 19.403-.165 22.362-.325l.34.325c0 5.198-6.08 1.09-6.9 5.718-.737 4.033-.47 8.727-.47 12.845 9.608-.564 24.163-1.613 24.163 11.888 0 18.9-26.984 13.308-39.107 13.984l-.387-.374zm15.33-23.272c0 4.805-2.973 21.177 4.043 21.177 13.855 0 16.744-21.26 1.235-21.26-1.266 0-3.036.018-5.276.083zm25.123-18.79V69.42c.038-.032 22.363-.325 22.737 0 0 3.764-1.177 2.016-4.612 3.28-5.094 1.963-3.096 33.52-2.03 36.005 1.116 2.485 5.053 1.325 6.643 2.778v1.997l-.374.374c-7.375-.406-14.615-.41-21.99 0l-.374-2.37c1.594-1.456 5.61-.3 6.674-2.86 1.83-4.24 1.805-30.158-.015-34.38-1.13-2.588-5.13-1.228-6.66-2.826zm68.518 35.062c-5.928 13.303-29.728 9.836-36.426-1.282-21.097-34.993 41.62-53.55 37.66-16.08-3.35 3.358-27.268 1.707-31.733 1.707.185 18.646 15.876 23.113 29.736 14.86l.764.795zm-30.5-19.455c6.416 1.104 16.677 1.276 23.126.293.94-21.464-23.125-21.383-23.125-.293z" fill="#2c2c2b"/></g></svg>