<svg version="1.2" baseProfile="tiny" xmlns="http://www.w3.org/2000/svg" viewBox="21 298 591 170" overflow="scroll"><path d="M136.6 463.3v-4.1h8.4c5.3 0 9-2.3 11-7 .9-2 2.1-5.7 3.5-10.9s2.5-9.3 3.2-12.2c.3-.9.5-1.9.8-3.2.3-1.2.7-2.9 1.2-4.9 1.9-6.5 4.3-16.4 7.2-29.8h-40.5c-4 10.2-8.3 19.7-13.2 28.7-4.8 8.9-10.2 16.9-16.1 24-5.9 7.1-12.3 12.6-19.2 16.6-6.8 4-14.1 5.9-21.8 5.9-6.8 0-13-1.7-18.7-5.1s-10.2-7.9-13.5-13.5c-3.3-5.6-4.9-11.6-4.9-17.8 0-8.4 2.5-15.6 7.5-21.7s12.8-9.1 23.3-9.1c7.4 0 14.9 2.3 22.5 7 2.7 1.7 5 3.4 6.8 5l-2.3 3.1c-1.6-1-3.3-2-4.9-2.9-8.4-5.4-16.4-8.1-23.8-8.1-9 0-15.3 2.5-18.9 7.5-3.6 5-5.4 10.1-5.4 15.4 0 8 1.7 14.7 5.2 20.2 3.4 5.5 7.7 9.5 12.7 12.1 5 2.6 10 3.9 14.8 3.9 9.4 0 18.2-3.5 26.3-10.4 8.1-7 15.3-15.6 21.4-26.1s11.7-22 16.9-34.6H90.9v-4.5h36.6c9.6-21.4 19.4-38.2 29.5-50.3 10.1-12.1 19.4-20.2 28-24.4 8.6-4.2 16.4-6.3 23.5-6.3 3.7 0 7.6.8 11.5 2.3l-1.4 3.6c-3.3-1.2-5.8-1.8-7.4-1.8-2.8 0-5.1 1-6.8 2.9-1.9 2.6-3.8 7.5-5.8 14.8-3.7 13.7-7.3 29.4-10.8 47.3-.8 4.7-1.7 8.6-2.7 11.9h14.8v4.5h-15.5c-3.2 14.9-6.5 27.4-9.9 37.5-3.4 10.1-7.9 18.3-13.2 24.6-1.4 1.5-2 2.6-2 3.4 0 1.6 1.3 2.5 3.8 2.5h28.1v4.1h-54.6zm-3.6-76.5h40.1c1.6-7.2 2.4-11 2.5-11.2 1.5-7.2 3.1-14 4.7-20.3 1.6-6.3 3.3-12 5-17 1.8-5 3.8-9.7 6.2-14.1 2.3-4.4 5.1-8.6 8.4-12.5h-1.3c-9 1.5-17.8 6.6-26.6 15.1-8.7 8.5-16.5 18.3-23.2 29.4-6.8 10.9-12.1 21.2-15.8 30.6zm171.3 76.5v-4.1h8.4c3.6 0 6.4-1 8.3-2.9 2.2-2.5 5.3-11.5 9.3-27 4-15.5 7.5-30.4 10.5-44.8.3-1.5 1.4-6.5 3.2-14.9 1.8-8.4 3.3-14.8 4.4-19.1 1.2-4.3 2.7-8.9 4.6-13.8 1.9-4.9 4.2-9.7 6.9-14.5l-.9-1.4L254.8 444c-.6.7-1.4 1.8-2.5 3.4-.7 1.1-2.5 3.2-5.4 6.3-3.1 3.3-5.5 5.8-7.2 7.3-1.7 1.5-4.1 2.8-7.1 3.9-3.1 1.1-7 1.6-12 1.6-5.9 0-10.1-1.5-12.6-4.5-2.4-3-3.7-6.5-3.7-10.3 0-2.3.5-4.5 1.5-6.3h4.1c-1.1 1.6-1.6 3.7-1.6 6.3 0 7.2 4 10.8 12 10.8 3.7 0 6.7-.9 9-2.6 2.4-1.7 4.4-4.6 6.2-8.6 1.8-4.1 3.4-9.3 5-15.7 1.6-6.4 3.7-16.6 6.6-30.5 7.4-37 13.7-61.3 18.9-72.9 4.5-10.2 9-17.4 13.5-21.6V309c-6.7 0-13.3 1-19.9 3.1-6.6 2.1-12 4.6-16.3 7.5-5.1 3.1-9.7 6.9-13.8 11.5-4.1 4.5-7.4 9.8-9.9 15.7-2.5 5.9-3.7 12.3-3.7 19.1 0 9.3 4 18.3 12.1 27l-2.5 2.5c-3.9-3.5-7.2-8-9.8-13.5-2.6-5.5-3.9-10.9-3.9-16 0-18.5 7.9-33.7 23.8-45.7 11.7-8.8 25.5-13.6 41.2-14.4h6.3c2.3 0 4.2.2 5.7.7v2.5l-1.2.2c-2.9.7-5.4 3.7-7.4 9-2.8 7.5-6.9 24.6-12.4 51.3-7.4 36.5-13.8 60.9-19.1 73.1l1.3 1.4 102.6-121.8c4.9-5.8 9-9.9 12.4-12.5 3.4-2.6 7.5-3.9 12.3-3.9 3.3 0 4.9.8 4.9 2.3 0 1.2-1 1.9-3 2h-1.1c-.2 0-.4 0-.6-.1-.2-.1-.5-.1-1-.1h-1.3c-1.2 0-2.3.9-3.4 2.7-.1.3-.4.7-.7 1.1-1.3 2.3-2.3 4.7-2.9 7-.1 1-.7 2.7-1.6 5.2-2.1 7.4-4 14.5-5.6 21.3-1.6 6.8-4.3 19.6-7.9 38.4-2.9 15.1-5.8 27.4-8.8 36.8-3 9.4-5.7 16.2-8 20.3-2.3 4.1-4.8 7.8-7.5 11.1-1.5 1.8-2.3 2.9-2.3 3.4 0 1.1.8 1.9 2.3 2.3h29.7v4.1h-54.2zm204.6 0v-4.1h8.3c5.1 0 8.8-2.3 11-6.8 3-6.6 8.6-28.3 16.6-65.2 3-14.1 5.8-25.8 8.4-35 2.6-9.2 5-16.4 7.3-21.5 2.3-5.1 4.9-9.9 7.9-14.2-15 0-32.5-.4-52.4-1.3-2.1 4.5-4.5 11.6-7.2 21.2s-6.8 27.1-12.4 52.3c-2.4 10.9-4.3 19.5-5.9 25.7-1.5 6.2-3.5 12.6-5.9 19-2.4 6.4-5.5 12.8-9.4 19.1-5.5 9.2-10.7 13.7-15.7 13.7-2.3 0-3.4-.8-3.4-2.3 0-1.5.7-2.3 2-2.3.2 0 .8.1 1.8.4.6.3 1.1.5 1.6.5 1 0 2-1 3.2-2.9 1.2-1.9 2-3.8 2.7-5.4 3.7-10 7.8-26.8 12.4-50.2 3.2-16 6.1-29.1 8.7-39.5 2.5-10.3 5-18.8 7.3-25.3s4.6-11.6 6.8-15.3 4.8-6.8 7.6-9.3c-12.6-1.2-30.1-2.1-52.4-2.7-3.7 8-7.5 21.8-11.5 41.4-2.8 14.1-5 24.8-6.5 31.9-1.6 7.1-2.8 12.4-3.7 16-.9 3.6-1.6 6.3-2.1 8.3-.5 2-1.1 5-1.8 9.1 5.3 2.2 10.2 3.9 14.6 5.1 4.5 1.2 10.1 2.4 17.1 3.7l-.9 4.7c-6.8-1.2-12.3-2.4-16.2-3.5-4-1.1-9.4-3-16.2-5.5-2.2 8.7-5.8 17.3-10.5 25.9-2.9 5.2-6.2 9.3-9.9 12.4s-8.6 4.6-14.7 4.6c-5.4 0-9.5-1.5-12.2-4.4s-4-6.4-4-10.4c0-2.3.5-4.4 1.6-6.3h4.1c-1.1 2.3-1.6 4.3-1.6 6.1 0 7.3 4 11 12.1 11 4.6 0 8.6-2.1 11.9-6.3 4.6-6 8.4-18.1 11.3-36.4-5.5-2.6-11-6.1-16.4-10.5s-10-10.4-13.9-17.7c-3.8-7.4-5.7-15.9-5.7-25.7 0-13.2 3-23.8 9-32 6-8.1 13.4-14 22.3-17.7 8.9-3.7 17.7-6 26.2-6.9 8.6-1 17.6-1.4 27.1-1.4 6.2 0 20.8.8 43.7 2.3 25.5 1.9 46.6 2.9 63.5 2.9 8.5 0 14.4-.5 17.8-1.6 3.4-1.1 6.3-2.6 8.8-4.7 2.6-2.2 4.2-3.4 4.9-3.4 1.1 0 1.6.7 1.6 2 0 2-2.4 4.2-7.2 6.5-6.6 3-15.1 4.5-25.7 4.5-.4 1.5-.9 2.8-1.4 3.8-.1.3-.3.8-.5 1.3-.2.6-.4 1.1-.5 1.6-.2.5-.3 1.1-.5 1.8-.2.6-.4 1.5-.7 2.7-3.9 14.9-8.3 34.9-13.2 59.9-2.9 14.5-6.1 27.4-9.6 38.4-3.5 11.1-8.3 20.4-14.5 27.9-1.4 1.6-2 2.8-2 3.4 0 1.1.8 1.9 2.3 2.3h29.7v4.1h-54.9zm-56.1-150.5c-9.8 0-19.5 1.3-29.2 3.9-9.7 2.6-18 7.7-25.1 15.3-7 7.6-10.5 18.3-10.5 32.1 0 15 3.6 26.4 10.9 34.4 7.3 7.9 14.3 13.3 21.1 16.2 1.8-7 4.1-17.6 7-31.9 4.5-22.2 8.9-38.3 13.3-48.4 4.4-10.1 8.6-17.3 12.5-21.6z"/></svg>