<?xml version="1.0" encoding="utf-8"?>
<!-- Generator: Adobe Illustrator 22.1.0, SVG Export Plug-In . SVG Version: 6.00 Build 0)  -->
<svg version="1.1" id="Layer_1" xmlns="http://www.w3.org/2000/svg" xmlns:xlink="http://www.w3.org/1999/xlink" x="0px" y="0px"
	 viewBox="0 0 24 24" style="enable-background:new 0 0 24 24;" xml:space="preserve">
<path d="M12,0C5.4,0,0,5.4,0,12s5.4,12,12,12s12-5.4,12-12S18.6,0,12,0z M12,19.5c-0.8,0-1.5-0.7-1.5-1.5s0.7-1.5,1.5-1.5
	s1.5,0.7,1.5,1.5S12.8,19.5,12,19.5z M14.1,12.5c-0.7,0.6-1.1,1-1.1,1.5h-2c0-1.4,0.9-2.3,1.7-3c0.8-0.7,1.3-1.2,1.3-2
	c0-1.1-0.9-2-2-2s-2,0.9-2,2H8c0-2.2,1.8-4,4-4s4,1.8,4,4C16,10.7,14.9,11.7,14.1,12.5z"/>
</svg>
