<svg xmlns="http://www.w3.org/2000/svg" viewBox="-3.1 53.1 367.5 359.3" enable-background="new -3.1 53.1 367.5 359.3"><path fill="#F91D0A" d="M115.9 262.8c11.2-21.9 23.9-46.6 34.1-71.4l4-9.8c-13.3-50.6-21.3-91.2-14.1-117.4 1.9-6.8 9.8-11 18.3-11l5.2.1h.9c11.6-.2 17.1 14.6 17.7 20.3 1 9.6-3.4 25.7-3.4 25.7 0-6.5.3-17.1-3.9-26.2-4.8-10.5-9.4-16.8-13.5-17.8-2.1 1.4-4.1 4.3-4.8 9.8-1.4 7.7-1.9 17.5-1.9 22.5 0 17.8 3.5 41.3 10.4 65.5 1.3-3.7 2.4-7.4 3.4-10.7 1.4-5.3 10.4-40.6 10.4-40.6s-2.3 46.9-5.4 61.1c-.7 3-1.4 6-2.2 9 11.4 31.7 29.7 60 51.5 80.4 8.6 8 19.5 14.5 29.8 20.4 22.5-3.2 43.1-4.7 60.4-4.5 22.9.3 39.7 3.7 46.5 10.4 3.3 3.3 4.7 7.2 5.1 11.6.1 1.7-.7 5.7-1 6.8.2-1.2.2-7.2-18.1-13.1-14.5-4.6-41.6-4.5-74.1-1 37.6 18.4 74.2 27.5 85.8 22.1 2.8-1.4 6.3-6.1 6.3-6.1s-2 9.3-3.5 11.6c-1.9 2.5-5.6 5.3-9 6.2-18.3 4.9-66.1-6.4-107.7-30.2-46.5 6.8-97.5 19.5-138.4 32.9-40.2 70.5-70.4 102.8-95 90.5l-9-4.5c-3.7-2.1-4.2-7.2-3.4-11.4 2.9-14 20.5-35.2 55.8-56.3 3.8-2.3 20.7-11.3 20.7-11.3s-12.5 12.1-15.5 14.5c-28.2 23.1-49 52.2-48.5 63.5l.1 1c23.9-3.5 59.8-52.2 106-142.6m14.7 7.5c-7.7 14.5-15.3 28-22.2 40.4 38.5-16.1 79.9-26.5 119.4-33.8-5.3-3.7-10.4-7.5-15.3-11.6-21.7-18.4-38.3-41.3-50.3-65.5-7.6 20.4-16.7 42.2-31.6 70.5"/></svg>