<?xml version="1.0" encoding="utf-8"?>
<!-- Generator: Adobe Illustrator 17.1.0, SVG Export Plug-In . SVG Version: 6.00 Build 0)  -->
<!DOCTYPE svg PUBLIC "-//W3C//DTD SVG 1.1//EN" "http://www.w3.org/Graphics/SVG/1.1/DTD/svg11.dtd">
<svg version="1.1" id="Ebene_3" xmlns="http://www.w3.org/2000/svg" xmlns:xlink="http://www.w3.org/1999/xlink" x="0px" y="0px"
	 viewBox="-3.1 53.1 367.5 359.3" enable-background="new -3.1 53.1 367.5 359.3" xml:space="preserve">
<g>
	<path id="path4463" fill="#F91D0A" d="M115.9,262.8c11.2-21.9,23.9-46.6,34.1-71.4l0,0l4-9.8c-13.3-50.6-21.3-91.2-14.1-117.4l0,0
		c1.9-6.8,9.8-11,18.3-11l0,0l5.2,0.1h0.9c11.6-0.2,17.1,14.6,17.7,20.3l0,0c1,9.6-3.4,25.7-3.4,25.7l0,0c0-6.5,0.3-17.1-3.9-26.2
		l0,0c-4.8-10.5-9.4-16.8-13.5-17.8l0,0c-2.1,1.4-4.1,4.3-4.8,9.8l0,0c-1.4,7.7-1.9,17.5-1.9,22.5l0,0c0,17.8,3.5,41.3,10.4,65.5
		l0,0c1.3-3.7,2.4-7.4,3.4-10.7l0,0c1.4-5.3,10.4-40.6,10.4-40.6l0,0c0,0-2.3,46.9-5.4,61.1l0,0c-0.7,3-1.4,6-2.2,9l0,0
		c11.4,31.7,29.7,60,51.5,80.4l0,0c8.6,8,19.5,14.5,29.8,20.4l0,0c22.5-3.2,43.1-4.7,60.4-4.5l0,0c22.9,0.3,39.7,3.7,46.5,10.4l0,0
		c3.3,3.3,4.7,7.2,5.1,11.6l0,0c0.1,1.7-0.7,5.7-1,6.8l0,0c0.2-1.2,0.2-7.2-18.1-13.1l0,0c-14.5-4.6-41.6-4.5-74.1-1l0,0
		c37.6,18.4,74.2,27.5,85.8,22.1l0,0c2.8-1.4,6.3-6.1,6.3-6.1l0,0c0,0-2,9.3-3.5,11.6l0,0c-1.9,2.5-5.6,5.3-9,6.2l0,0
		c-18.3,4.9-66.1-6.4-107.7-30.2l0,0c-46.5,6.8-97.5,19.5-138.4,32.9l0,0c-40.2,70.5-70.4,102.8-95,90.5l0,0l-9-4.5
		c-3.7-2.1-4.2-7.2-3.4-11.4l0,0c2.9-14,20.5-35.2,55.8-56.3l0,0c3.8-2.3,20.7-11.3,20.7-11.3l0,0c0,0-12.5,12.1-15.5,14.5l0,0
		c-28.2,23.1-49,52.2-48.5,63.5l0,0l0.1,1C33.8,401.9,69.7,353.2,115.9,262.8 M130.6,270.3c-7.7,14.5-15.3,28-22.2,40.4l0,0
		c38.5-16.1,79.9-26.5,119.4-33.8l0,0c-5.3-3.7-10.4-7.5-15.3-11.6l0,0c-21.7-18.4-38.3-41.3-50.3-65.5l0,0
		C154.6,220.2,145.5,242,130.6,270.3"/>
</g>
</svg>
