<svg xmlns="http://www.w3.org/2000/svg" viewBox="2 2.2 87.7 87.7" enable-background="new 2 2.2 87.7 87.7"><path fill="#fff" stroke="#000" stroke-width="5" stroke-miterlimit="10" d="M81.2 45.3M47.9 7.1c1.1-1.4 2.9-2.4 4.8-2.4h28.4c3.4 0 6.1 2.7 6.1 6.1v28.4c0 1.5-.6 3-1.5 4"/><path stroke="#000" stroke-width="5" stroke-linecap="round" stroke-miterlimit="10" fill="none" d="M85.8 43.3L41.6 87.5M47.8 7L4.5 50.3"/><path stroke="#000" stroke-width="5" stroke-miterlimit="10" fill="none" d="M41.6 87.5L4.5 50.3"/><circle stroke="#000" stroke-width="5" stroke-linecap="round" stroke-miterlimit="10" cx="72.1" cy="19.6" r="8" fill="none"/><path stroke="#000" stroke-width="5" stroke-linecap="round" stroke-miterlimit="10" fill="none" d="M56.8 25.7L24.9 57.6M50.1 19.2L18.3 51M70.7 38.8L38.9 70.7M63.8 32.1L32 64"/><path stroke="#3953A4" stroke-width="3" stroke-linecap="round" stroke-linejoin="round" stroke-miterlimit="10" d="M21.3 51.5c.1.8.5 1.5 1 2l1.2-2.2c.3 1 .4 2 .3 3-.1-.4.8-.6.8-.1.5-2.3.7-4.6.7-6.9v2.4c.2-.8.6-1.5 1.2-2 .9 1.7 1.2 3.6.9 5.4-.2-2-.2-3.9-.1-5.9.1-1.2.5-2.7 1.7-2.8 1.2-.1 1.9 1.4 2 2.7 0 1.4-.3 2.9-.9 4.2-.1-1.5-.1-3.2.7-4.4l1.3-1.4c1.9-1.8 3-4.2 4.1-6.5l-2 6c2.9-3.6 4.6-8.2 4.7-12.8-1.9.8-3.2 2.8-3.2 4.8 0 1.1.7 2.5 1.8 2.5.5 0 .9-.2 1.3-.5 2.8-1.8 5-4.7 6-7.8.3.6.6 1.2.8 1.7 1.9-1.1 3.2-3.3 3-5.5.1.8 1.3.7 1.9.3 2.3-1.3 4.3-3 6-5 .3.1.5.4.5.7M37.8 63.5c-.2 1.3.2 2.6 1 3.6 2.5-1 4.1-3.9 3.5-6.5-.6.2-1.2.6-1.5 1.2.6-1.3 1.4-2.6 2.2-3.8 1.4 1.1 2.5 2.7 3.1 4.5 1.6-3.4 3.2-6.9 4.9-10.3.5-1 1.3-2.1 2.3-1.8 0 1.6-.4 3.3-1.2 4.7-1.3-1.3-2.2-2.9-2.8-4.6-.3-.8-.4-1.6-.2-2.4.2-.8.8-1.5 1.7-1.6 1.3-.1 2.1 1.3 2.5 2.5.4-1.3.8-2.7 1.6-3.8.8-1.1 2-2.1 3.4-2.1l1 4.3c1.6-3.4 4.1-6.4 7.2-8.5l-.3 3c.6-2.4 1.3-4.8 2.1-7.1" fill="none"/></svg>