<svg xmlns="http://www.w3.org/2000/svg" width="437.419" height="223.377"><g transform="matrix(1.25 0 0 1.25 -109.64 -93.94)" fill-rule="evenodd"><path d="M221.183 223.884c-.187-.401-4.094-7.989-4.838-9.409-1.837-3.511-4.853-9.27-7.459-15.189-2.127-4.829-5.118-13.024-5.982-16.837-.012-.051 5.395-5.609 5.496-5.74 1.295.555 4.665 17.714 5.781 20.248 2.507 5.693 5.485 11.38 7.3 14.848.735 1.405.224 2.272.536 2.946l-.834 9.133zm-15.802-42.019c-1.791.402-.34.804 0 0zm-59.2 24.794c10.213-4.485 22.666-21.072 27.221-27.139.811-1.082.871-4.339 1.138-4.659l5.495 5.653c-.319.381-1.342 1.567-2.018 2.469-4.801 6.394-18.808 21.227-30.41 26.321l-1.426-2.645zm14.309-111.748c1.177 2.665.48 4.349-1.354 5.6-1.243.847-2.742 1.016-4.446 1.205-2.251.252-5.227.588-4.863 4.5 1.755.986 2.497 1.956.309 2.555l.167 1.362-3.688-.47-2.416-.308c-1.045.023-2.217.029-3.536.014h-.011c-3.12-.038-5.884-.065-9.23.001-2.577.051-5.553.165-9.409.378.097 6.039 2.137 11.216 6.117 15.53l2.877 4.999-5.728-.677c-1.905-.225-4.238-.499-6.968-.673-8.349-.56-18.745.985-26.586 5.629-1.392.824 17.444 10.419 22.112 11.897-1.517 3.633-6.434 9.803-4.952 11.013.685.558 3.061.684 6.33 2.037 6.406 3.18 11.09 4.813 17.136 7.841l2.461 2.076c-4 3.648-6.866 8.836-10.974 12.743-1.897 1.803-3.674 3.493-4.74 4.937-.128.173-.255.335-.384.487 1.135.5 2.264 1.067 3.394 1.636 3.011 1.515 6.039 3.039 8.256 2.636l1.498-.272 1.07 1.086 3.413 3.464 1.673 1.699-1.345 1.956c-4.829 7.031-7.498 13.352-8.932 19.263-1.181 4.873-1.532 9.552-1.571 14.156 2.264-.29 4.508-1.096 6.656-1.865.737-.264 1.467-.526 2.401-.833 4.075-1.339 7.83-3.197 11.397-5.699 3.593-2.521 7.028-5.723 10.441-9.734l3.021-2.773 3.488 2.761c1.081 6.149 3.208 11.95 9.071 16.508 2.497-1.853 4.403-4.348 6.039-7.348 2.112-3.875 3.813-8.668 5.69-14.021l.012-.034-.012.034m-28.498-114.471c.323-.22.066-.087-.32.061l.32-.061zm-1.439.194l-.011-.013-1.275-1.869 1.501-1.684c3.103-3.476 11.638-7.336 21.257-7.901 6.975-.41 14.462 1.363 21.233 5.607l25.844 15.56v.011c1.065.669 1.916-3.156 6.102-6.642 7.12-5.929 17.046-14.197 26.141-18.96 2.331-1.221 4.531-2.167 6.424-2.882 3.667-1.387 6.31-1.909 6.491-1.931h.01c2.697-.316 7.864 5.407 10.456 10.148.722 1.322 1.294 2.583 1.604 3.621.566 1.891.403 3.533-.761 4.678-.972.96-2.254 1.283-3.875.795-11.664-3.5-19.95 4.913-33.179 18.346-1.492 1.515-3.047 3.094-4.684 4.736l-.003-.003-.009.015-.014.013v.008l-.002.001.002.002.027-.034-.001-.002-.012.012-.014.021v.003l-.002-.002c-1.717 2.374 9.859 12.695 10.58 13.29 9.13 7.526 14.215 15.36 16.572 23.714 2.34 8.298 1.948 16.979.147 26.318l-.313 1.888-25.833.204c4.578 5.625 10.136 11.837 11.191 19.033 2.636 6.487.059 12.967-.408 19.735l-.135 2.653c-5.082-.442-7.32-1.562-12.609-3.949-.426-.458-.861-.926-1.372-1.354-.45 10.601-.683 21.169-4.658 32.276l-1.77 2.461-2.37-1.872c-3.783-2.988-6.991-6.201-9.83-9.555-2.09-2.47-3.961-5-5.705-7.567l-7.367 5.667-2.318 1.784-1.755-2.338c-3.472-4.628-6.094-10.161-8.169-16.268-.985-2.902-1.849-5.938-2.625-9.073-1.626 4.576-3.206 8.721-5.188 12.357-2.475 4.541-5.533 8.196-9.945 10.708l-1.781 1.014-1.544-1.353c-6.084-3.364-9.19-9.757-10.89-16.305-2.731 2.836-6.724 6.444-9.642 8.49-4.05 2.841-8.311 4.95-12.935 6.47-.591.194-1.412.488-2.243.786-3.584 1.284-7.389 2.646-11.725 2.276l-2.617-.223-.042-2.628c-.093-5.917.149-11.963 1.741-18.525 1.451-5.986 4.018-12.305 8.452-19.182l-.805-.816c-3.528.074-6.908-1.627-10.27-3.319-2.111-1.061-4.163-1.995-6.435-2.641l-2.623-1.385c.541-3.546 8.945-10.851 9.407-12.379 2.034-1.935 4.209-4.004 5.843-6.089.159-.204.439-.751.725-1.312l.269-.52-.029-.208c-5.25-2.847-24.459-8.159-23.978-11.267.235-1.513 4.449-8.179 5.907-9.951.052-.731-1.912-1.456-4.62-2.843-4.483-2.455-12.768-4.885-16.26-11.766 7.975-7.342 20.045-11.579 30.962-10.885.534.033 1.071.075 1.602.12l-1.911-3.32-.317-.871-2.371-11.442-.677-3.265 3.335-.208c5.467-.071 9.3-.927 24.559-.786l.945.122c.056.007-1.651.899-1.591.907.621-6.485 7.681-7.961 11.808-8.422l.381-.04zm29.949 114.243l2.438-7.274 2.998-5.049 2.58 5.433c1.242 6.556 2.7 12.857 4.639 18.565 1.538 4.528 3.378 8.672 5.649 12.251l7.418-5.707 2.494-1.918 1.704 2.642c2.113 3.276 4.378 6.495 6.985 9.576 1.978 2.337 4.178 4.616 6.688 6.808l.715-.992 1.038-26.043.004-.102.041-.248.619-3.737.506-3.052c4.199 1.157 4.525 2.784 9.633 5.927.684.735 4.604 1.573 5.598 2.024 1.114-5.499.693-10.894-2.262-16.007-2.044-8.215-8.542-16.335-11.028-25.044l26.872-.658c1.286-7.66 1.435-14.761-.442-21.418-2.045-7.249-6.542-14.116-14.672-20.819-.979-.806-16.269-15.474-11.342-21.456v-.011c.116-.14.228-.266.335-.373l.005.006c1.618-1.621 3.182-3.21 4.682-4.734 13.476-13.684 22.349-22.686 35.228-20.687-1.745-3.185-4.222-7.106-4.689-7.102-.134.017-2.035.421-5.132 1.592-1.659.627-3.629 1.478-5.789 2.609-8.484 4.443-18.161 12.503-25.101 18.282-6.055 5.044-10.378 8.639-12.884 7.076l-.005.008-25.667-16.09c-5.614-3.519-12.073-4.544-17.993-4.196-6.752.397-12.648 2.479-15.759 4.655" fill="#2c2c2b"/><path d="M145.021 77.523c14.315-.39 23.751-7.872 32.449 6.627l5.377 8.963c6.107 10.179 16.406 20.326 33.021 29.484 5.386.155 15.071 7.11 15.041 2.28-.038-6.142 15.021-9.215 28.442 3.297 11.369 10.597 11.191 33.521 15.098 49.122l-22.156.26-102.941-13.296-14.281-51.601-.135-10.841 10.085-24.294z" fill="#fff" stroke="#fff" stroke-width=".216"/><path d="M269.721 227.32v-1.897l.298-.234c2.092-.078 3.495-.312 4.236-.727.727-.403 1.78-1.56 3.157-3.457 2.027-2.844 6.262-8.939 12.706-18.279l10.277-14.682c3.131-4.443 4.937-7.081 5.444-7.925.338-.559.493-1.052.493-1.481 0-.819-.493-1.403-1.494-1.767-1.013-.377-3.872-.675-8.587-.896l-.3-.273v-1.897l.3-.273c.454 0 1.909.052 4.377.156 2.456.104 4.678.156 6.665.156 2.001 0 4.171-.052 6.51-.156l4.3-.156.26.273c-.078 1.091-.13 2.468-.156 4.145l-.104 6.327v25.114c0 2.078.026 4.599.065 7.535.052 2.949.13 4.807.234 5.574.104.779.299 1.325.611 1.637.298.325.909.559 1.805.714.897.143 2.417.26 4.548.338l.312.234v1.897l-.312.299c-.169 0-1.832-.04-4.99-.144-3.013-.104-5.015-.155-6.002-.155-.545 0-4.144.104-10.822.299l-.299-.299v-1.897l.299-.234c2.183-.078 3.741-.195 4.651-.338.91-.155 1.507-.403 1.794-.754.272-.337.453-.909.545-1.701.091-.806.156-2.715.208-5.755.051-3.028.078-5.445.078-7.25v-30.948h-1.027l-13.512 21.048-10.432 16.253c-2.664 4.17-4.054 6.444-4.184 6.833-.13.403-.195.702-.195.936 0 .987.78 1.494 2.326 1.52l2.82.156.298.234v1.897l-.298.299c-2.573-.195-5.068-.299-7.497-.299-2.897 0-5.924.104-9.108.299l-.298-.299zm91.542-5.6l-1.222 2.742c-2.637 1.701-4.988 2.806-7.054 3.312-2.079.507-3.923.766-5.548.766-3.04 0-5.924-.597-8.652-1.792-2.729-1.195-4.951-3.209-6.665-6.055-1.715-2.845-2.573-6.261-2.573-10.276 0-2.663.337-5.067 1-7.21.65-2.145 1.352-3.742 2.066-4.782.728-1.039 1.949-2.195 3.677-3.456 1.728-1.273 3.547-2.286 5.482-3.053 1.924-.753 4.002-1.143 6.237-1.143 3.053 0 5.73.728 8.054 2.157 2.326 1.429 3.95 3.261 4.886 5.495.948 2.235 1.416 4.612 1.416 7.12 0 .792-.039 1.546-.117 2.286l-.415.416c-1.729.39-4.054.637-6.965.766-2.923.13-4.845.183-5.794.183h-12.213c.053 5.261 1.365 9.133 3.963 11.614 2.585 2.482 5.755 3.729 9.51 3.729 1.781 0 3.482-.298 5.119-.91 1.637-.61 3.365-1.454 5.197-2.545l.611.636zm-24.4-15.564c.455.078 2.209.168 5.275.272 3.053.091 5.314.143 6.795.143 3.522 0 5.665-.065 6.431-.182.027-.61.04-1.078.04-1.416 0-3.924-.806-6.86-2.404-8.769-1.598-1.911-3.781-2.872-6.548-2.872-3.015 0-5.366 1.078-7.055 3.235s-2.534 5.353-2.534 9.589zm61.128 17.097l-1.52 2.547c-3.274 1.792-6.925 2.702-10.965 2.702-5.587 0-9.901-1.663-12.941-4.989-3.04-3.326-4.573-7.614-4.573-12.863 0-2.39.26-4.507.78-6.378.519-1.858 1.182-3.404 1.988-4.626.792-1.221 1.675-2.182 2.637-2.897.975-.702 2.598-1.689 4.898-2.962 2.3-1.273 4.028-2.105 5.197-2.494 1.169-.391 2.78-.585 4.833-.585 3.937 0 7.158.74 9.666 2.235-.48 2.87-.845 6.067-1.105 9.601l-.337.299h-1.559l-.351-.338c-.104-2.131-.234-3.573-.416-4.301-.182-.74-1.182-1.52-3.026-2.364-1.846-.831-3.795-1.26-5.886-1.26-2.079 0-3.924.442-5.548 1.324-1.624.872-2.858 2.3-3.677 4.301-.831 1.988-1.234 4.365-1.234 7.133 0 2.338.324 4.612.987 6.833.663 2.223 1.533 4.054 2.612 5.522 1.078 1.455 2.494 2.625 4.274 3.521 1.78.883 3.755 1.325 5.938 1.325 1.377 0 2.715-.181 4.014-.532 1.312-.351 2.819-.935 4.509-1.754l.805 1zm9.627-21.736l-1.481-.389-.312-.377c.026-.403.039-.922.039-1.56l-.039-3.157c2.741-1.779 5.067-3.066 6.977-3.845 1.897-.792 3.962-1.183 6.197-1.183 3.937 0 7.042 1.027 9.328 3.08 2.287 2.065 3.431 4.846 3.431 8.379l-.195 7.653v11.342c0 1.365.117 2.273.338 2.703.233.429.545.714.935.87.389.156 1.208.286 2.455.39l.299.338v1.52l-.299.311c-1.974-.181-3.52-.272-4.638-.272-1.065 0-2.715.091-4.95.272l-.571-.545.142-6.12-4.872 3.807c-1.689 1.338-2.832 2.235-3.417 2.664-1.403.585-2.923.87-4.573.87-3.014 0-5.391-.806-7.132-2.417-1.742-1.61-2.612-3.793-2.612-6.561 0-2.87.754-5.209 2.248-7.028 1.494-1.806 3.767-3.236 6.795-4.261 3.027-1.027 7.561-1.962 13.563-2.794 0-1.572-.104-2.923-.312-4.041-.22-1.117-.74-2.169-1.571-3.17-.819-1-1.858-1.766-3.119-2.273-1.246-.507-2.663-.754-4.235-.754-.844 0-1.65.065-2.443.208-.779.143-1.52.364-2.208.663-.689.311-1.104.519-1.261.649-.143.13-.285.351-.415.689-.078.143-.351.754-.831 1.819-.391.819-.702 1.585-.949 2.326l-.312.194zm17.656 5.899c-5.859.935-9.977 2.092-12.342 3.481-2.378 1.377-3.56 3.612-3.56 6.679 0 1.975.519 3.495 1.572 4.533 1.066 1.04 2.495 1.56 4.327 1.56 3.377 0 6.716-1.962 10.003-5.859v-10.394zm-280.082-70.257c.012-1.031.027-2.052 0-3.08l.533-.494c5.021.497 10.51.608 13.278-4.417 8.305-15.078-17.294-22.718-20.853-4.223l-1.039.417c-1.088-1.091-.837-6.973-1.027-8.757 8.027-5.875 31.974-9.521 31.974 5.443 0 7.159-6.019 11.195-12.407 12.525v.649c9.281 0 17.968 2.081 17.968 13.162 0 18.075-26.472 24.287-38.366 13.706.271-4.071.275-7.993.195-12.069l1.52-.572c2.075 1.749 2.618 8.362 5.34 11.251 17.586 18.665 38.287-30.937 3.417-23.009l-.533-.532zm73.458 9.588c0 25.829-38.444 27.579-38.444 1.494 0-24.287 38.444-25.106 38.444-1.494zm-7.341 2.247c0-20.36-23.788-22.897-23.788-2.507 0 21.385 23.788 24.69 23.788 2.507zm9.926 15.344c.779-.71 2.403-.473 3.482-1.092 3.99-2.188 22.099-25.269 22.099-28.868 0-3.334-6.82 1.06-6.82-3.69l.272-.26c2.514.202 16.005-.643 17.046.26-.268 6.827-2.316 25.235.324 31.402.891 2.009 4.036 1.083 5.315 2.248v1.598l-.3.299c-5.899-.325-11.691-.327-17.59 0l-.273-1.897c1.504-1.504 5.277-.024 5.599-3.352.857-8.711.312-17.81.312-26.53h-.572c-5.203 7.399-15.505 18.346-18.5 26.737-1.15 3.345 3.723 2.006 5.028 3.145v1.598l-.313.299c-4.988-.322-9.822-.306-14.81 0l-.299-1.897zm85.748-17.591c0 25.829-38.444 27.579-38.444 1.494 0-24.287 38.444-25.106 38.444-1.494zm-7.341 2.247c0-20.36-23.788-22.897-23.788-2.507 0 21.385 23.788 24.69 23.788 2.507zm11.368-18.306c2.036-1.693 28.754-.015 33.573-.26l.272.26c-.055 1.205.227 7.996-.455 8.718h-1.533c-1.153-1.221.125-5.22-1.883-6.055-2.369-1.013-7.29-.221-9.875-.221-.055 3.484-1.636 29.257 1.416 30.429 1.182.464 2.859-.016 3.769.779v1.598l-.313.299c-5.323-.41-10.735-.432-16.057 0l-.313-.299v-1.598c3.465-3.026 5.07 1.89 5.262-5.457.224-8.582.018-17.17-.117-25.751-2.526 0-7.626-.812-9.913.247-1.895.787-.733 4.851-1.845 6.029l-1.754-.234c0-1.014-.077-3.833-.234-8.484zm38.328 35.248v-1.598c1.675-1.467 5.22-.052 5.625-3.352.613-6.337 1.86-21.378-.312-26.452-1.376-3.212-5.313.371-5.313-3.846.959-.8 15.523-.132 17.89-.26l.273.26c0 4.158-4.866.871-5.522 4.574-.589 3.227-.376 6.982-.376 10.276 7.687-.451 19.331-1.29 19.331 9.511 0 15.12-21.587 10.645-31.285 11.186l-.311-.299zm12.265-18.618c0 3.844-2.379 16.942 3.234 16.942 11.084 0 13.395-17.007.988-17.007-1.014 0-2.43.013-4.222.065zm20.098-15.032v-1.598c.03-.026 17.89-.26 18.189 0 0 3.011-.941 1.613-3.689 2.625-4.076 1.569-2.478 26.815-1.625 28.803.893 1.988 4.042 1.06 5.314 2.222v1.598l-.299.299c-5.899-.325-11.691-.328-17.591 0l-.299-1.897c1.275-1.164 4.487-.239 5.339-2.287 1.463-3.391 1.444-24.126-.012-27.504-.904-2.07-4.104-.982-5.327-2.261zm54.814 28.05c-4.742 10.642-23.782 7.869-29.141-1.026-16.877-27.994 33.297-42.839 30.128-12.863-2.679 2.686-21.814 1.365-25.386 1.365.148 14.917 12.701 18.49 23.789 11.888l.61.636zm-24.399-15.564c5.132.883 13.341 1.021 18.5.234.751-17.171-18.5-17.106-18.5-.234z" fill="#2c2c2b"/></g></svg>