<?xml version="1.0" encoding="UTF-8" standalone="no"?>
<!-- Created with Inkscape (http://www.inkscape.org/) -->

<svg
   xmlns:dc="http://purl.org/dc/elements/1.1/"
   xmlns:cc="http://creativecommons.org/ns#"
   xmlns:rdf="http://www.w3.org/1999/02/22-rdf-syntax-ns#"
   xmlns:svg="http://www.w3.org/2000/svg"
   xmlns="http://www.w3.org/2000/svg"
   version="1.1"
   width="437.41864"
   height="223.37659"
   id="svg2">
  <defs
     id="defs4" />
  <metadata
     id="metadata7">
    <rdf:RDF>
      <cc:Work
         rdf:about="">
        <dc:format>image/svg+xml</dc:format>
        <dc:type
           rdf:resource="http://purl.org/dc/dcmitype/StillImage" />
        <dc:title></dc:title>
      </cc:Work>
    </rdf:RDF>
  </metadata>
  <g
     transform="translate(-134.27397,-391.39682)"
     id="layer1">
    <g
       transform="matrix(1.25,0,0,1.25,24.634474,297.45716)"
       id="g3003"
       style="fill-rule:evenodd">
      <g
         id="g2987">
        <g
           id="g2989">
          <path
             d="m 221.183,223.884 c -0.187,-0.401 -4.094,-7.989 -4.838,-9.409 -1.837,-3.511 -4.853,-9.27 -7.459,-15.189 -2.127,-4.829 -5.118,-13.024 -5.982,-16.837 -0.012,-0.051 5.395,-5.609 5.496,-5.74 1.295,0.555 4.665,17.714 5.781,20.248 2.507,5.693 5.485,11.38 7.3,14.848 0.735,1.405 0.224,2.272 0.536,2.946 l -0.834,9.133 z m -15.802,-42.019 c -1.791,0.402 -0.34,0.804 0,0 z m -59.2,24.794 c 10.213,-4.485 22.666,-21.072 27.221,-27.139 0.811,-1.082 0.871,-4.339 1.138,-4.659 l 5.495,5.653 c -0.319,0.381 -1.342,1.567 -2.018,2.469 -4.801,6.394 -18.808,21.227 -30.41,26.321 l -1.426,-2.645 z M 160.49,94.9109 c 1.177,2.6648 0.48,4.3486 -1.354,5.6001 -1.243,0.847 -2.742,1.016 -4.446,1.205 -2.251,0.252 -5.227,0.588 -4.863,4.5 1.755,0.986 2.497,1.956 0.309,2.555 l 0.167,1.362 -3.688,-0.47 c -1.119,-0.142 -1.873,-0.237 -2.416,-0.308 -1.045,0.023 -2.217,0.029 -3.536,0.014 l -0.011,0 c -3.12,-0.038 -5.884,-0.065 -9.23,0.001 -2.577,0.051 -5.553,0.165 -9.409,0.378 0.097,6.039 2.137,11.216 6.117,15.53 l 2.877,4.999 -5.728,-0.677 c -1.905,-0.225 -4.238,-0.499 -6.968,-0.673 -8.349,-0.56 -18.7451,0.985 -26.5858,5.629 -1.3924,0.824 17.4438,10.419 22.1118,11.897 -1.517,3.633 -6.434,9.803 -4.952,11.013 0.685,0.558 3.061,0.684 6.33,2.037 6.406,3.18 11.09,4.813 17.136,7.841 l 2.461,2.076 c -4,3.648 -6.866,8.836 -10.974,12.743 -1.897,1.803 -3.674,3.493 -4.74,4.937 -0.128,0.173 -0.255,0.335 -0.384,0.487 1.135,0.5 2.264,1.067 3.394,1.636 3.011,1.515 6.039,3.039 8.256,2.636 l 1.498,-0.272 1.07,1.086 3.413,3.464 1.673,1.699 -1.345,1.956 c -4.829,7.031 -7.498,13.352 -8.932,19.263 -1.181,4.873 -1.532,9.552 -1.571,14.156 2.264,-0.29 4.508,-1.096 6.656,-1.865 0.737,-0.264 1.467,-0.526 2.401,-0.833 4.075,-1.339 7.83,-3.197 11.397,-5.699 3.593,-2.521 7.028,-5.723 10.441,-9.734 l 3.021,-2.773 3.488,2.761 c 1.081,6.149 3.208,11.95 9.071,16.508 2.497,-1.853 4.403,-4.348 6.039,-7.348 2.112,-3.875 3.813,-8.668 5.69,-14.021 l 0.012,-0.034 c -0.004,0.011 -0.007,0.023 -0.012,0.034 M 155.876,95.736 c 0.323,-0.22 0.066,-0.087 -0.32,0.0607 0.186,-0.0254 0.302,-0.0476 0.32,-0.0607 z m -1.439,0.1937 c -0.004,-0.0041 -0.008,-0.009 -0.011,-0.0131 l -1.275,-1.8693 1.501,-1.6837 c 3.103,-3.4758 11.638,-7.3359 21.257,-7.9007 6.975,-0.4096 14.462,1.3627 21.233,5.607 l 25.844,15.5601 0,0.011 c 1.065,0.669 1.916,-3.156 6.102,-6.6418 7.12,-5.9288 17.046,-14.1973 26.141,-18.9603 2.331,-1.2208 4.531,-2.1665 6.424,-2.8816 3.667,-1.3865 6.31,-1.9094 6.491,-1.9307 l 0.01,0 c 2.697,-0.3161 7.864,5.4066 10.456,10.1475 0.722,1.3217 1.294,2.5835 1.604,3.6211 0.566,1.8915 0.403,3.5334 -0.761,4.6778 -0.972,0.9597 -2.254,1.2831 -3.875,0.7954 -11.664,-3.5004 -19.95,4.9126 -33.179,18.3456 -1.492,1.515 -3.047,3.094 -4.684,4.736 l -0.003,-0.003 c -0.004,0.005 -0.006,0.01 -0.009,0.015 -0.005,0.004 -0.01,0.009 -0.014,0.013 l 0,0.008 c -0.001,0 -0.001,0.001 -0.002,0.001 l 0.002,0.002 c -0.002,0.002 0.047,-0.058 0.027,-0.034 l -0.001,-0.002 c -0.004,0.004 -0.008,0.008 -0.012,0.012 -0.005,0.007 -0.01,0.014 -0.014,0.021 l 0,0.003 -0.002,-0.002 c -1.717,2.374 9.859,12.695 10.58,13.29 9.13,7.526 14.215,15.36 16.572,23.714 2.34,8.298 1.948,16.979 0.147,26.318 l -0.313,1.888 -25.833,0.204 c 4.578,5.625 10.136,11.837 11.191,19.033 2.636,6.487 0.059,12.967 -0.408,19.735 l -0.135,2.653 c -5.082,-0.442 -7.32,-1.562 -12.609,-3.949 -0.426,-0.458 -0.861,-0.926 -1.372,-1.354 -0.45,10.601 -0.683,21.169 -4.658,32.276 l -1.77,2.461 -2.37,-1.872 c -3.783,-2.988 -6.991,-6.201 -9.83,-9.555 -2.09,-2.47 -3.961,-5 -5.705,-7.567 l -7.367,5.667 -2.318,1.784 -1.755,-2.338 c -3.472,-4.628 -6.094,-10.161 -8.169,-16.268 -0.985,-2.902 -1.849,-5.938 -2.625,-9.073 -1.626,4.576 -3.206,8.721 -5.188,12.357 -2.475,4.541 -5.533,8.196 -9.945,10.708 l -1.781,1.014 -1.544,-1.353 c -6.084,-3.364 -9.19,-9.757 -10.89,-16.305 -2.731,2.836 -6.724,6.444 -9.642,8.49 -4.05,2.841 -8.311,4.95 -12.935,6.47 -0.591,0.194 -1.412,0.488 -2.243,0.786 -3.584,1.284 -7.389,2.646 -11.725,2.276 l -2.617,-0.223 -0.042,-2.628 c -0.093,-5.917 0.149,-11.963 1.741,-18.525 1.451,-5.986 4.018,-12.305 8.452,-19.182 l -0.805,-0.816 c -3.528,0.074 -6.908,-1.627 -10.27,-3.319 -2.111,-1.061 -4.163,-1.995 -6.435,-2.641 l -2.623,-1.385 c 0.541,-3.546 8.945,-10.851 9.407,-12.379 2.034,-1.935 4.209,-4.004 5.843,-6.089 0.159,-0.204 0.439,-0.751 0.725,-1.312 0.088,-0.173 0.178,-0.346 0.269,-0.52 -0.114,-0.106 0.081,-0.107 -0.029,-0.208 -5.25,-2.847 -24.459,-8.159 -23.978,-11.267 0.235,-1.513 4.449,-8.179 5.907,-9.951 0.052,-0.731 -1.912,-1.456 -4.62,-2.843 -4.4833,-2.455 -12.7682,-4.885 -16.2604,-11.766 7.9754,-7.342 20.0454,-11.579 30.9624,-10.885 0.534,0.033 1.071,0.075 1.602,0.12 l -1.911,-3.32 -0.317,-0.871 -2.371,-11.442 -0.677,-3.265 3.335,-0.208 c 5.467,-0.071 9.3,-0.927 24.559,-0.786 0.217,0.029 0.524,0.067 0.945,0.122 0.056,0.007 -1.651,0.899 -1.591,0.907 0.621,-6.4846 7.681,-7.9607 11.808,-8.422 0.129,-0.0148 0.258,-0.0263 0.381,-0.0403 z m 29.949,114.2433 2.438,-7.274 2.998,-5.049 2.58,5.433 c 1.242,6.556 2.7,12.857 4.639,18.565 1.538,4.528 3.378,8.672 5.649,12.251 l 7.418,-5.707 2.494,-1.918 1.704,2.642 c 2.113,3.276 4.378,6.495 6.985,9.576 1.978,2.337 4.178,4.616 6.688,6.808 l 0.715,-0.992 1.038,-26.043 0.004,-0.102 0.041,-0.248 0.619,-3.737 0.506,-3.052 c 4.199,1.157 4.525,2.784 9.633,5.927 0.684,0.735 4.604,1.573 5.598,2.024 1.114,-5.499 0.693,-10.894 -2.262,-16.007 -2.044,-8.215 -8.542,-16.335 -11.028,-25.044 l 26.872,-0.658 c 1.286,-7.66 1.435,-14.761 -0.442,-21.418 -2.045,-7.249 -6.542,-14.116 -14.672,-20.819 -0.979,-0.806 -16.269,-15.474 -11.342,-21.456 l 0,-0.011 c 0.116,-0.14 0.228,-0.266 0.335,-0.373 l 0.005,0.006 c 1.618,-1.621 3.182,-3.21 4.682,-4.734 13.476,-13.6837 22.349,-22.6862 35.228,-20.6871 -1.745,-3.1853 -4.222,-7.1061 -4.689,-7.102 -0.134,0.0172 -2.035,0.4211 -5.132,1.5918 -1.659,0.6272 -3.629,1.4776 -5.789,2.609 -8.484,4.4429 -18.161,12.5028 -25.101,18.2823 -6.055,5.044 -10.378,8.639 -12.884,7.076 l -0.005,0.008 -25.667,-16.0898 c -5.614,-3.5193 -12.073,-4.5439 -17.993,-4.1958 -6.752,0.3965 -12.648,2.4793 -15.759,4.6555"
             id="path2991"
             style="fill:#2c2c2b;stroke:none" />
          <path
             d="m 145.021,77.5227 c 14.315,-0.3899 23.751,-7.872 32.449,6.6266 l 5.377,8.963 c 6.107,10.1787 16.406,20.3257 33.021,29.4837 5.386,0.155 15.071,7.11 15.041,2.28 -0.038,-6.142 15.021,-9.215 28.442,3.297 11.369,10.597 11.191,33.521 15.098,49.122 l -22.156,0.26 -102.941,-13.296 -14.281,-51.601 -0.135,-10.841 10.085,-24.2943 z"
             id="path2993"
             style="fill:#ffffff;stroke:#ffffff;stroke-width:0.21600001" />
          <path
             d="m 269.721,227.32 0,-1.897 0.298,-0.234 c 2.092,-0.078 3.495,-0.312 4.236,-0.727 0.727,-0.403 1.78,-1.56 3.157,-3.457 2.027,-2.844 6.262,-8.939 12.706,-18.279 l 10.277,-14.682 c 3.131,-4.443 4.937,-7.081 5.444,-7.925 0.338,-0.559 0.493,-1.052 0.493,-1.481 0,-0.819 -0.493,-1.403 -1.494,-1.767 -1.013,-0.377 -3.872,-0.675 -8.587,-0.896 l -0.3,-0.273 0,-1.897 0.3,-0.273 c 0.454,0 1.909,0.052 4.377,0.156 2.456,0.104 4.678,0.156 6.665,0.156 2.001,0 4.171,-0.052 6.51,-0.156 l 4.3,-0.156 0.26,0.273 c -0.078,1.091 -0.13,2.468 -0.156,4.145 l -0.104,6.327 0,25.114 c 0,2.078 0.026,4.599 0.065,7.535 0.052,2.949 0.13,4.807 0.234,5.574 0.104,0.779 0.299,1.325 0.611,1.637 0.298,0.325 0.909,0.559 1.805,0.714 0.897,0.143 2.417,0.26 4.548,0.338 l 0.312,0.234 0,1.897 -0.312,0.299 c -0.169,0 -1.832,-0.04 -4.99,-0.144 -3.013,-0.104 -5.015,-0.155 -6.002,-0.155 -0.545,0 -4.144,0.104 -10.822,0.299 l -0.299,-0.299 0,-1.897 0.299,-0.234 c 2.183,-0.078 3.741,-0.195 4.651,-0.338 0.91,-0.155 1.507,-0.403 1.794,-0.754 0.272,-0.337 0.453,-0.909 0.545,-1.701 0.091,-0.806 0.156,-2.715 0.208,-5.755 0.051,-3.028 0.078,-5.445 0.078,-7.25 l 0,-30.948 -1.027,0 -13.512,21.048 -10.432,16.253 c -2.664,4.17 -4.054,6.444 -4.184,6.833 -0.13,0.403 -0.195,0.702 -0.195,0.936 0,0.987 0.78,1.494 2.326,1.52 l 2.82,0.156 0.298,0.234 0,1.897 -0.298,0.299 c -2.573,-0.195 -5.068,-0.299 -7.497,-0.299 -2.897,0 -5.924,0.104 -9.108,0.299 l -0.298,-0.299 z m 91.542,-5.6 -1.222,2.742 c -2.637,1.701 -4.988,2.806 -7.054,3.312 -2.079,0.507 -3.923,0.766 -5.548,0.766 -3.04,0 -5.924,-0.597 -8.652,-1.792 -2.729,-1.195 -4.951,-3.209 -6.665,-6.055 -1.715,-2.845 -2.573,-6.261 -2.573,-10.276 0,-2.663 0.337,-5.067 1,-7.21 0.65,-2.145 1.352,-3.742 2.066,-4.782 0.728,-1.039 1.949,-2.195 3.677,-3.456 1.728,-1.273 3.547,-2.286 5.482,-3.053 1.924,-0.753 4.002,-1.143 6.237,-1.143 3.053,0 5.73,0.728 8.054,2.157 2.326,1.429 3.95,3.261 4.886,5.495 0.948,2.235 1.416,4.612 1.416,7.12 0,0.792 -0.039,1.546 -0.117,2.286 l -0.415,0.416 c -1.729,0.39 -4.054,0.637 -6.965,0.766 -2.923,0.13 -4.845,0.183 -5.794,0.183 l -12.213,0 c 0.053,5.261 1.365,9.133 3.963,11.614 2.585,2.482 5.755,3.729 9.51,3.729 1.781,0 3.482,-0.298 5.119,-0.91 1.637,-0.61 3.365,-1.454 5.197,-2.545 l 0.611,0.636 z m -24.4,-15.564 c 0.455,0.078 2.209,0.168 5.275,0.272 3.053,0.091 5.314,0.143 6.795,0.143 3.522,0 5.665,-0.065 6.431,-0.182 0.027,-0.61 0.04,-1.078 0.04,-1.416 0,-3.924 -0.806,-6.86 -2.404,-8.769 -1.598,-1.911 -3.781,-2.872 -6.548,-2.872 -3.015,0 -5.366,1.078 -7.055,3.235 -1.689,2.157 -2.534,5.353 -2.534,9.589 z m 61.128,17.097 -1.52,2.547 c -3.274,1.792 -6.925,2.702 -10.965,2.702 -5.587,0 -9.901,-1.663 -12.941,-4.989 -3.04,-3.326 -4.573,-7.614 -4.573,-12.863 0,-2.39 0.26,-4.507 0.78,-6.378 0.519,-1.858 1.182,-3.404 1.988,-4.626 0.792,-1.221 1.675,-2.182 2.637,-2.897 0.975,-0.702 2.598,-1.689 4.898,-2.962 2.3,-1.273 4.028,-2.105 5.197,-2.494 1.169,-0.391 2.78,-0.585 4.833,-0.585 3.937,0 7.158,0.74 9.666,2.235 -0.48,2.87 -0.845,6.067 -1.105,9.601 l -0.337,0.299 -1.559,0 -0.351,-0.338 c -0.104,-2.131 -0.234,-3.573 -0.416,-4.301 -0.182,-0.74 -1.182,-1.52 -3.026,-2.364 -1.846,-0.831 -3.795,-1.26 -5.886,-1.26 -2.079,0 -3.924,0.442 -5.548,1.324 -1.624,0.872 -2.858,2.3 -3.677,4.301 -0.831,1.988 -1.234,4.365 -1.234,7.133 0,2.338 0.324,4.612 0.987,6.833 0.663,2.223 1.533,4.054 2.612,5.522 1.078,1.455 2.494,2.625 4.274,3.521 1.78,0.883 3.755,1.325 5.938,1.325 1.377,0 2.715,-0.181 4.014,-0.532 1.312,-0.351 2.819,-0.935 4.509,-1.754 l 0.805,1 z m 9.627,-21.736 -1.481,-0.389 -0.312,-0.377 c 0.026,-0.403 0.039,-0.922 0.039,-1.56 l -0.039,-3.157 c 2.741,-1.779 5.067,-3.066 6.977,-3.845 1.897,-0.792 3.962,-1.183 6.197,-1.183 3.937,0 7.042,1.027 9.328,3.08 2.287,2.065 3.431,4.846 3.431,8.379 l -0.195,7.653 0,11.342 c 0,1.365 0.117,2.273 0.338,2.703 0.233,0.429 0.545,0.714 0.935,0.87 0.389,0.156 1.208,0.286 2.455,0.39 l 0.299,0.338 0,1.52 -0.299,0.311 c -1.974,-0.181 -3.52,-0.272 -4.638,-0.272 -1.065,0 -2.715,0.091 -4.95,0.272 l -0.571,-0.545 0.142,-6.12 -4.872,3.807 c -1.689,1.338 -2.832,2.235 -3.417,2.664 -1.403,0.585 -2.923,0.87 -4.573,0.87 -3.014,0 -5.391,-0.806 -7.132,-2.417 -1.742,-1.61 -2.612,-3.793 -2.612,-6.561 0,-2.87 0.754,-5.209 2.248,-7.028 1.494,-1.806 3.767,-3.236 6.795,-4.261 3.027,-1.027 7.561,-1.962 13.563,-2.794 0,-1.572 -0.104,-2.923 -0.312,-4.041 -0.22,-1.117 -0.74,-2.169 -1.571,-3.17 -0.819,-1 -1.858,-1.766 -3.119,-2.273 -1.246,-0.507 -2.663,-0.754 -4.235,-0.754 -0.844,0 -1.65,0.065 -2.443,0.208 -0.779,0.143 -1.52,0.364 -2.208,0.663 -0.689,0.311 -1.104,0.519 -1.261,0.649 -0.143,0.13 -0.285,0.351 -0.415,0.689 -0.078,0.143 -0.351,0.754 -0.831,1.819 -0.391,0.819 -0.702,1.585 -0.949,2.326 l -0.312,0.194 z m 17.656,5.899 c -5.859,0.935 -9.977,2.092 -12.342,3.481 -2.378,1.377 -3.56,3.612 -3.56,6.679 0,1.975 0.519,3.495 1.572,4.533 1.066,1.04 2.495,1.56 4.327,1.56 3.377,0 6.716,-1.962 10.003,-5.859 l 0,-10.394 z M 145.192,137.159 c 0.012,-1.031 0.027,-2.052 0,-3.08 l 0.533,-0.494 c 5.021,0.497 10.51,0.608 13.278,-4.417 8.305,-15.078 -17.294,-22.718 -20.853,-4.223 l -1.039,0.417 c -1.088,-1.091 -0.837,-6.973 -1.027,-8.757 8.027,-5.875 31.974,-9.521 31.974,5.443 0,7.159 -6.019,11.195 -12.407,12.525 l 0,0.649 c 9.281,0 17.968,2.081 17.968,13.162 0,18.075 -26.472,24.287 -38.366,13.706 0.271,-4.071 0.275,-7.993 0.195,-12.069 l 1.52,-0.572 c 2.075,1.749 2.618,8.362 5.34,11.251 17.586,18.665 38.287,-30.937 3.417,-23.009 l -0.533,-0.532 z m 73.458,9.588 c 0,25.829 -38.444,27.579 -38.444,1.494 0,-24.287 38.444,-25.106 38.444,-1.494 z m -7.341,2.247 c 0,-20.36 -23.788,-22.897 -23.788,-2.507 0,21.385 23.788,24.69 23.788,2.507 z m 9.926,15.344 c 0.779,-0.71 2.403,-0.473 3.482,-1.092 3.99,-2.188 22.099,-25.269 22.099,-28.868 0,-3.334 -6.82,1.06 -6.82,-3.69 l 0.272,-0.26 c 2.514,0.202 16.005,-0.643 17.046,0.26 -0.268,6.827 -2.316,25.235 0.324,31.402 0.891,2.009 4.036,1.083 5.315,2.248 l 0,1.598 -0.3,0.299 c -5.899,-0.325 -11.691,-0.327 -17.59,0 l -0.273,-1.897 c 1.504,-1.504 5.277,-0.024 5.599,-3.352 0.857,-8.711 0.312,-17.81 0.312,-26.53 l -0.572,0 c -5.203,7.399 -15.505,18.346 -18.5,26.737 -1.15,3.345 3.723,2.006 5.028,3.145 l 0,1.598 -0.313,0.299 c -4.988,-0.322 -9.822,-0.306 -14.81,0 l -0.299,-1.897 z m 85.748,-17.591 c 0,25.829 -38.444,27.579 -38.444,1.494 0,-24.287 38.444,-25.106 38.444,-1.494 z m -7.341,2.247 c 0,-20.36 -23.788,-22.897 -23.788,-2.507 0,21.385 23.788,24.69 23.788,2.507 z m 11.368,-18.306 c 2.036,-1.693 28.754,-0.015 33.573,-0.26 l 0.272,0.26 c -0.055,1.205 0.227,7.996 -0.455,8.718 l -1.533,0 c -1.153,-1.221 0.125,-5.22 -1.883,-6.055 -2.369,-1.013 -7.29,-0.221 -9.875,-0.221 -0.055,3.484 -1.636,29.257 1.416,30.429 1.182,0.464 2.859,-0.016 3.769,0.779 l 0,1.598 -0.313,0.299 c -5.323,-0.41 -10.735,-0.432 -16.057,0 l -0.313,-0.299 0,-1.598 c 3.465,-3.026 5.07,1.89 5.262,-5.457 0.224,-8.582 0.018,-17.17 -0.117,-25.751 -2.526,0 -7.626,-0.812 -9.913,0.247 -1.895,0.787 -0.733,4.851 -1.845,6.029 l -1.754,-0.234 c 0,-1.014 -0.077,-3.833 -0.234,-8.484 z m 38.328,35.248 0,-1.598 c 1.675,-1.467 5.22,-0.052 5.625,-3.352 0.613,-6.337 1.86,-21.378 -0.312,-26.452 -1.376,-3.212 -5.313,0.371 -5.313,-3.846 0.959,-0.8 15.523,-0.132 17.89,-0.26 l 0.273,0.26 c 0,4.158 -4.866,0.871 -5.522,4.574 -0.589,3.227 -0.376,6.982 -0.376,10.276 7.687,-0.451 19.331,-1.29 19.331,9.511 0,15.12 -21.587,10.645 -31.285,11.186 l -0.311,-0.299 z m 12.265,-18.618 c 0,3.844 -2.379,16.942 3.234,16.942 11.084,0 13.395,-17.007 0.988,-17.007 -1.014,0 -2.43,0.013 -4.222,0.065 z m 20.098,-15.032 0,-1.598 c 0.03,-0.026 17.89,-0.26 18.189,0 0,3.011 -0.941,1.613 -3.689,2.625 -4.076,1.569 -2.478,26.815 -1.625,28.803 0.893,1.988 4.042,1.06 5.314,2.222 l 0,1.598 -0.299,0.299 c -5.899,-0.325 -11.691,-0.328 -17.591,0 l -0.299,-1.897 c 1.275,-1.164 4.487,-0.239 5.339,-2.287 1.463,-3.391 1.444,-24.126 -0.012,-27.504 -0.904,-2.07 -4.104,-0.982 -5.327,-2.261 z m 54.814,28.05 c -4.742,10.642 -23.782,7.869 -29.141,-1.026 -16.877,-27.994 33.297,-42.839 30.128,-12.863 -2.679,2.686 -21.814,1.365 -25.386,1.365 0.148,14.917 12.701,18.49 23.789,11.888 l 0.61,0.636 z m -24.399,-15.564 c 5.132,0.883 13.341,1.021 18.5,0.234 0.751,-17.171 -18.5,-17.106 -18.5,-0.234 z"
             id="path2995"
             style="fill:#2c2c2b;stroke:none" />
        </g>
      </g>
    </g>
  </g>
</svg>
