<?xml version="1.0" encoding="utf-8"?>
<!-- Generator: Adobe Illustrator 17.1.0, SVG Export Plug-In . SVG Version: 6.00 Build 0)  -->
<svg version="1.2" baseProfile="tiny" id="Layer_1" xmlns="http://www.w3.org/2000/svg" xmlns:xlink="http://www.w3.org/1999/xlink"
	 x="0px" y="0px" viewBox="21 298 591 170" overflow="scroll" xml:space="preserve">
<g>
	<path d="M136.6,463.3v-4.1h8.4c5.3,0,9-2.3,11-7c0.9-2,2.1-5.7,3.5-10.9s2.5-9.3,3.2-12.2c0.3-0.9,0.5-1.9,0.8-3.2
		c0.3-1.2,0.7-2.9,1.2-4.9c1.9-6.5,4.3-16.4,7.2-29.8h-40.5c-4,10.2-8.3,19.7-13.2,28.7c-4.8,8.9-10.2,16.9-16.1,24
		c-5.9,7.1-12.3,12.6-19.2,16.6c-6.8,4-14.1,5.9-21.8,5.9c-6.8,0-13-1.7-18.7-5.1s-10.2-7.9-13.5-13.5c-3.3-5.6-4.9-11.6-4.9-17.8
		c0-8.4,2.5-15.6,7.5-21.7c5-6.1,12.8-9.1,23.3-9.1c7.4,0,14.9,2.3,22.5,7c2.7,1.7,5,3.4,6.8,5l-2.3,3.1c-1.6-1-3.3-2-4.9-2.9
		c-8.4-5.4-16.4-8.1-23.8-8.1c-9,0-15.3,2.5-18.9,7.5c-3.6,5-5.4,10.1-5.4,15.4c0,8,1.7,14.7,5.2,20.2c3.4,5.5,7.7,9.5,12.7,12.1
		c5,2.6,10,3.9,14.8,3.9c9.4,0,18.2-3.5,26.3-10.4c8.1-7,15.3-15.6,21.4-26.1s11.7-22,16.9-34.6H90.9v-4.5h36.6
		c9.6-21.4,19.4-38.2,29.5-50.3c10.1-12.1,19.4-20.2,28-24.4c8.6-4.2,16.4-6.3,23.5-6.3c3.7,0,7.6,0.8,11.5,2.3l-1.4,3.6
		c-3.3-1.2-5.8-1.8-7.4-1.8c-2.8,0-5.1,1-6.8,2.9c-1.9,2.6-3.8,7.5-5.8,14.8c-3.7,13.7-7.3,29.4-10.8,47.3
		c-0.8,4.7-1.7,8.6-2.7,11.9h14.8v4.5h-15.5c-3.2,14.9-6.5,27.4-9.9,37.5c-3.4,10.1-7.9,18.3-13.2,24.6c-1.4,1.5-2,2.6-2,3.4
		c0,1.6,1.3,2.5,3.8,2.5h28.1v4.1H136.6z M133,386.8h40.1c1.6-7.2,2.4-11,2.5-11.2c1.5-7.2,3.1-14,4.7-20.3c1.6-6.3,3.3-12,5-17
		c1.8-5,3.8-9.7,6.2-14.1c2.3-4.4,5.1-8.6,8.4-12.5h-1.3c-9,1.5-17.8,6.6-26.6,15.1c-8.7,8.5-16.5,18.3-23.2,29.4
		C142,367.1,136.7,377.4,133,386.8z"/>
	<path d="M304.3,463.3v-4.1h8.4c3.6,0,6.4-1,8.3-2.9c2.2-2.5,5.3-11.5,9.3-27c4-15.5,7.5-30.4,10.5-44.8c0.3-1.5,1.4-6.5,3.2-14.9
		c1.8-8.4,3.3-14.8,4.4-19.1c1.2-4.3,2.7-8.9,4.6-13.8c1.9-4.9,4.2-9.7,6.9-14.5l-0.9-1.4L254.8,444c-0.6,0.7-1.4,1.8-2.5,3.4
		c-0.7,1.1-2.5,3.2-5.4,6.3c-3.1,3.3-5.5,5.8-7.2,7.3c-1.7,1.5-4.1,2.8-7.1,3.9c-3.1,1.1-7,1.6-12,1.6c-5.9,0-10.1-1.5-12.6-4.5
		c-2.4-3-3.7-6.5-3.7-10.3c0-2.3,0.5-4.5,1.5-6.3h4.1c-1.1,1.6-1.6,3.7-1.6,6.3c0,7.2,4,10.8,12,10.8c3.7,0,6.7-0.9,9-2.6
		c2.4-1.7,4.4-4.6,6.2-8.6c1.8-4.1,3.4-9.3,5-15.7c1.6-6.4,3.7-16.6,6.6-30.5c7.4-37,13.7-61.3,18.9-72.9c4.5-10.2,9-17.4,13.5-21.6
		v-1.6c-6.7,0-13.3,1-19.9,3.1c-6.6,2.1-12,4.6-16.3,7.5c-5.1,3.1-9.7,6.9-13.8,11.5c-4.1,4.5-7.4,9.8-9.9,15.7
		c-2.5,5.9-3.7,12.3-3.7,19.1c0,9.3,4,18.3,12.1,27l-2.5,2.5c-3.9-3.5-7.2-8-9.8-13.5c-2.6-5.5-3.9-10.9-3.9-16
		c0-18.5,7.9-33.7,23.8-45.7c11.7-8.8,25.5-13.6,41.2-14.4h6.3c2.3,0,4.2,0.2,5.7,0.7v2.5l-1.2,0.2c-2.9,0.7-5.4,3.7-7.4,9
		c-2.8,7.5-6.9,24.6-12.4,51.3c-7.4,36.5-13.8,60.9-19.1,73.1l1.3,1.4l102.6-121.8c4.9-5.8,9-9.9,12.4-12.5
		c3.4-2.6,7.5-3.9,12.3-3.9c3.3,0,4.9,0.8,4.9,2.3c0,1.2-1,1.9-3,2h-1.1c-0.2,0-0.4,0-0.6-0.1c-0.2-0.1-0.5-0.1-1-0.1h-1.3
		c-1.2,0-2.3,0.9-3.4,2.7c-0.1,0.3-0.4,0.7-0.7,1.1c-1.3,2.3-2.3,4.7-2.9,7c-0.1,1-0.7,2.7-1.6,5.2c-2.1,7.4-4,14.5-5.6,21.3
		c-1.6,6.8-4.3,19.6-7.9,38.4c-2.9,15.1-5.8,27.4-8.8,36.8c-3,9.4-5.7,16.2-8,20.3c-2.3,4.1-4.8,7.8-7.5,11.1
		c-1.5,1.8-2.3,2.9-2.3,3.4c0,1.1,0.8,1.9,2.3,2.3h1.6h2.7h25.4v4.1H304.3z"/>
	<path d="M508.9,463.3v-4.1h8.3c5.1,0,8.8-2.3,11-6.8c3-6.6,8.6-28.3,16.6-65.2c3-14.1,5.8-25.8,8.4-35c2.6-9.2,5-16.4,7.3-21.5
		c2.3-5.1,4.9-9.9,7.9-14.2c-15,0-32.5-0.4-52.4-1.3c-2.1,4.5-4.5,11.6-7.2,21.2c-2.7,9.6-6.8,27.1-12.4,52.3
		c-2.4,10.9-4.3,19.5-5.9,25.7c-1.5,6.2-3.5,12.6-5.9,19c-2.4,6.4-5.5,12.8-9.4,19.1c-5.5,9.2-10.7,13.7-15.7,13.7
		c-2.3,0-3.4-0.8-3.4-2.3c0-1.5,0.7-2.3,2-2.3c0.2,0,0.8,0.1,1.8,0.4c0.6,0.3,1.1,0.5,1.6,0.5c1,0,2-1,3.2-2.9
		c1.2-1.9,2-3.8,2.7-5.4c3.7-10,7.8-26.8,12.4-50.2c3.2-16,6.1-29.1,8.7-39.5c2.5-10.3,5-18.8,7.3-25.3c2.3-6.5,4.6-11.6,6.8-15.3
		s4.8-6.8,7.6-9.3c-12.6-1.2-30.1-2.1-52.4-2.7c-3.7,8-7.5,21.8-11.5,41.4c-2.8,14.1-5,24.8-6.5,31.9c-1.6,7.1-2.8,12.4-3.7,16
		c-0.9,3.6-1.6,6.3-2.1,8.3c-0.5,2-1.1,5-1.8,9.1c5.3,2.2,10.2,3.9,14.6,5.1c4.5,1.2,10.1,2.4,17.1,3.7l-0.9,4.7
		c-6.8-1.2-12.3-2.4-16.2-3.5c-4-1.1-9.4-3-16.2-5.5c-2.2,8.7-5.8,17.3-10.5,25.9c-2.9,5.2-6.2,9.3-9.9,12.4s-8.6,4.6-14.7,4.6
		c-5.4,0-9.5-1.5-12.2-4.4s-4-6.4-4-10.4c0-2.3,0.5-4.4,1.6-6.3h4.1c-1.1,2.3-1.6,4.3-1.6,6.1c0,7.3,4,11,12.1,11
		c4.6,0,8.6-2.1,11.9-6.3c4.6-6,8.4-18.1,11.3-36.4c-5.5-2.6-11-6.1-16.4-10.5s-10-10.4-13.9-17.7c-3.8-7.4-5.7-15.9-5.7-25.7
		c0-13.2,3-23.8,9-32c6-8.1,13.4-14,22.3-17.7c8.9-3.7,17.7-6,26.2-6.9c8.6-1,17.6-1.4,27.1-1.4c6.2,0,20.8,0.8,43.7,2.3
		c25.5,1.9,46.6,2.9,63.5,2.9c8.5,0,14.4-0.5,17.8-1.6c3.4-1.1,6.3-2.6,8.8-4.7c2.6-2.2,4.2-3.4,4.9-3.4c1.1,0,1.6,0.7,1.6,2
		c0,2-2.4,4.2-7.2,6.5c-6.6,3-15.1,4.5-25.7,4.5c-0.4,1.5-0.9,2.8-1.4,3.8c-0.1,0.3-0.3,0.8-0.5,1.3c-0.2,0.6-0.4,1.1-0.5,1.6
		c-0.2,0.5-0.3,1.1-0.5,1.8c-0.2,0.6-0.4,1.5-0.7,2.7c-3.9,14.9-8.3,34.9-13.2,59.9c-2.9,14.5-6.1,27.4-9.6,38.4
		c-3.5,11.1-8.3,20.4-14.5,27.9c-1.4,1.6-2,2.8-2,3.4c0,1.1,0.8,1.9,2.3,2.3h1.6h2.7h25.4v4.1H508.9z M452.8,312.8
		c-9.8,0-19.5,1.3-29.2,3.9c-9.7,2.6-18,7.7-25.1,15.3c-7,7.6-10.5,18.3-10.5,32.1c0,15,3.6,26.4,10.9,34.4
		c7.3,7.9,14.3,13.3,21.1,16.2c1.8-7,4.1-17.6,7-31.9c4.5-22.2,8.9-38.3,13.3-48.4C444.7,324.3,448.9,317.1,452.8,312.8z"/>
</g>
</svg>
