<svg xmlns="http://www.w3.org/2000/svg" width="920.962" height="614.815" viewBox="51.383 0 920.962 614.815" enable-background="new 51.383 0 920.962 614.815"><rect x="274.864" y="151.051" stroke="#000" stroke-width=".874" width="474.49" height="316.271" fill="none"/><g><rect x="51.437" y="1.188" fill="#002D62" stroke="#002D62" stroke-width=".46" width="920.948" height="612.519"/><polygon fill="#fff" stroke="#0063AD" stroke-width=".023" points="51.437,205.303 245.948,205.303 51.437,75.578 51.437,1.188 162.727,1.188 420.848,191.713 420.848,1.188 603.753,1.188 603.753,183.725 851.665,1.188 972.385,1.188 972.385,76.225 778.656,205.303 972.385,205.303 972.385,409.568 776.91,409.568 972.385,538.913 972.385,613.707 860.132,613.707 603.753,424.209 603.753,613.707 420.848,613.707 420.848,423.404 162.727,613.707 51.437,613.707 51.437,538.429 245.948,409.568 51.437,409.568"/><polygon fill="#E31937" points="51.436,247.674 459.559,247.674 459.559,1.187 567.965,1.187 567.965,247.674 972.386,247.674 972.386,367.296 567.965,367.296 568.385,613.709 459.559,613.709 459.559,367.296 51.436,367.296"/><polygon fill="#002D62" stroke="#002D62" stroke-width=".46" points="602.539,192.301 602.539,0.243 889.17,0.243"/><polygon fill="#002D62" stroke="#002D62" stroke-width=".46" points="421.823,192.301 421.823,0.243 135.193,0.243"/><polygon fill="#002D62" stroke="#002D62" stroke-width=".46" points="602.827,422.514 602.827,614.573 889.458,614.573"/><polygon fill="#002D62" stroke="#002D62" stroke-width=".46" points="421.823,422.353 421.823,614.412 135.193,614.412"/><polygon fill="#E31937" points="358.046,205.396 289.741,205.396 51.383,46.781 51.383,0.242"/><polygon fill="#E31937" points="665.681,409.74 733.986,409.74 972.345,567.979 972.345,614.41"/><polygon fill="#E31937" points="51.606,602.789 337.761,412.362 398.545,412.362 96.587,613.711 51.671,613.683"/><polygon fill="#E31937" points="972.983,13.841 685.025,205.583 620.04,206.53 930.311,0.893 972.394,0.893"/></g></svg>