<svg xmlns="http://www.w3.org/2000/svg" width="920.962" height="614.815" viewBox="51.383 0 920.962 614.815" enable-background="new 51.383 0 920.962 614.815"><path stroke="#000" stroke-width=".874" fill="none" d="M274.864 151.05h474.49v316.272h-474.49z"/><path fill="#002D62" stroke="#002D62" stroke-width=".46" d="M51.437 1.188h920.948v612.52H51.437z"/><path fill="#fff" stroke="#0063AD" stroke-width=".023" d="M51.437 205.303h194.51L51.438 75.578V1.188h111.29l258.12 190.525V1.188h182.906v182.537L851.665 1.188h120.72v75.037l-193.73 129.078h193.73v204.265H776.91l195.475 129.345v74.794H860.132L603.752 424.21v189.497H420.85V423.404l-258.12 190.303H51.437V538.43l194.51-128.862H51.438z"/><path fill="#E31937" d="M51.436 247.674H459.56V1.187h108.405v246.487h404.42v119.622h-404.42l.42 246.413H459.56V367.295H51.435z"/><path fill="#002D62" stroke="#002D62" stroke-width=".46" d="M602.54 192.3V.244h286.63zM421.823 192.3V.244h-286.63zM602.827 422.514v192.06h286.63zM421.823 422.353v192.06h-286.63z"/><path fill="#E31937" d="M358.046 205.396H289.74L51.384 46.78V.243zM665.68 409.74h68.306l238.36 158.24v46.43zM51.606 602.79L337.76 412.36h60.785L96.587 613.712l-44.916-.03zM972.983 13.84L685.025 205.584l-64.985.947L930.31.893h42.084z"/></svg>